<svg width="20" height="20" viewBox="0 0 20 20" fill="none" xmlns="http://www.w3.org/2000/svg">
<path fill-rule="evenodd" clip-rule="evenodd" d="M9.99991 0C4.47935 0 0 4.47935 0 9.99991C0 15.5205 4.47935 19.9998 9.99991 19.9998C15.5096 19.9998 19.9998 15.5205 19.9998 9.99991C19.9998 4.47935 15.5096 0 9.99991 0ZM16.605 4.6095C17.7981 6.06285 18.514 7.91749 18.5356 9.92397C18.2537 9.86979 15.4337 9.29492 12.5921 9.65285C12.527 9.51185 12.4728 9.35998 12.4077 9.20817C12.2341 8.79605 12.039 8.37305 11.8437 7.97174C14.989 6.69194 16.4207 4.84811 16.605 4.6095ZM9.99991 1.47504C12.1691 1.47504 14.1539 2.28849 15.6615 3.62253C15.5096 3.83945 14.2189 5.56394 11.1821 6.70275C9.78298 4.13228 8.23205 2.02818 7.99343 1.7028C8.6333 1.55096 9.30579 1.47504 9.99991 1.47504ZM6.36657 2.27764C6.59432 2.58132 8.11274 4.69627 9.53354 7.2125C5.54225 8.27543 2.01734 8.25374 1.63773 8.25374C2.19087 5.60733 3.98044 3.40561 6.36657 2.27764ZM1.45335 10.0108C1.45335 9.92397 1.45335 9.83723 1.45335 9.75048C1.82211 9.76129 5.96524 9.81554 10.2277 8.53574C10.4772 9.01292 10.7049 9.50098 10.9218 9.98904C10.8133 10.0216 10.694 10.0542 10.5856 10.0867C6.18216 11.5075 3.83945 15.3903 3.64422 15.7157C2.28848 14.2081 1.45335 12.2016 1.45335 10.0108ZM9.99991 18.5465C8.02593 18.5465 6.20385 17.874 4.76135 16.746C4.91319 16.4315 6.6485 13.091 11.4641 11.4099C11.4858 11.399 11.4966 11.399 11.5183 11.3882C12.7222 14.5009 13.2103 17.1148 13.3404 17.8632C12.3101 18.3078 11.1821 18.5465 9.99991 18.5465ZM14.7612 17.0823C14.6745 16.5617 14.2189 14.0671 13.1018 10.9977C15.7808 10.5747 18.1235 11.2689 18.4163 11.3665C18.0476 13.7418 16.681 15.7916 14.7612 17.0823Z" fill="#6B7280"/>
</svg>
