<svg width="20" height="20" viewBox="0 0 20 20" fill="none" xmlns="http://www.w3.org/2000/svg">
<path d="M10 20C8.62214 20 7.32322 19.7389 6.10325 19.2166C4.88327 18.6943 3.8222 17.9821 2.92006 17.0799C2.0179 16.1778 1.30569 15.1167 0.783423 13.8967C0.261141 12.6768 0 11.3779 0 10C0 8.60459 0.261141 7.30129 0.783423 6.0901C1.30569 4.87888 2.0179 3.8222 2.92006 2.92006C3.8222 2.0179 4.88327 1.30569 6.10325 0.783424C7.32322 0.261142 8.62214 0 10 0C11.3954 0 12.6987 0.261142 13.9099 0.783424C15.1211 1.30569 16.1778 2.0179 17.0799 2.92006C17.9821 3.8222 18.6943 4.87888 19.2166 6.0901C19.7389 7.30129 20 8.60459 20 10V11.2834C20 12.2442 19.67 13.06 19.0101 13.7307C18.3502 14.4015 17.5398 14.7368 16.5789 14.7368C15.9136 14.7368 15.3242 14.5813 14.8107 14.2702C14.2972 13.9592 13.892 13.5452 13.5951 13.0283C13.1619 13.5425 12.6538 13.9558 12.0708 14.2682C11.4879 14.5806 10.7976 14.7368 10 14.7368C8.68557 14.7368 7.56749 14.276 6.64575 13.3542C5.72403 12.4325 5.26317 11.3144 5.26317 10C5.26317 8.68558 5.72403 7.56749 6.64575 6.64575C7.56749 5.72403 8.68557 5.26317 10 5.26317C11.3144 5.26317 12.4325 5.72403 13.3542 6.64575C14.276 7.56749 14.7368 8.68558 14.7368 10V11.2834C14.7368 11.8394 14.9183 12.2908 15.2814 12.6377C15.6444 12.9845 16.0769 13.1579 16.5789 13.1579C17.081 13.1579 17.5135 12.9845 17.8765 12.6377C18.2396 12.2908 18.4211 11.8394 18.4211 11.2834V10C18.4211 7.70175 17.5921 5.72367 15.9342 4.06577C14.2763 2.40788 12.2983 1.57893 10 1.57893C7.70175 1.57893 5.72367 2.40788 4.06577 4.06577C2.40787 5.72367 1.57893 7.70175 1.57893 10C1.57893 12.2983 2.40787 14.2763 4.06577 15.9342C5.72367 17.5921 7.70175 18.4211 10 18.4211H15.2632V20H10ZM10 13.1579C10.8772 13.1579 11.6228 12.8509 12.2368 12.2368C12.8509 11.6228 13.1579 10.8772 13.1579 10C13.1579 9.1228 12.8509 8.37719 12.2368 7.76315C11.6228 7.14912 10.8772 6.8421 10 6.8421C9.1228 6.8421 8.37719 7.14912 7.76315 7.76315C7.14912 8.37719 6.8421 9.1228 6.8421 10C6.8421 10.8772 7.14912 11.6228 7.76315 12.2368C8.37719 12.8509 9.1228 13.1579 10 13.1579Z" fill="#6B7280"/>
</svg>
