<svg width="20" height="20" viewBox="0 0 20 20" fill="none" xmlns="http://www.w3.org/2000/svg">
<g clip-path="url(#clip0_1521_6216)">
<path d="M18.5194 0H1.47655C0.66015 0 0 0.644526 0 1.44139V18.5545C0 19.3514 0.66015 19.9998 1.47655 19.9998H18.5194C19.3358 19.9998 19.9998 19.3514 19.9998 18.5584V1.44139C19.9998 0.644526 19.3358 0 18.5194 0ZM5.93354 17.0428H2.96482V7.49603H5.93354V17.0428ZM4.44918 6.19526C3.49606 6.19526 2.72654 5.42573 2.72654 4.47652C2.72654 3.52731 3.49606 2.75779 4.44918 2.75779C5.39839 2.75779 6.16791 3.52731 6.16791 4.47652C6.16791 5.42183 5.39839 6.19526 4.44918 6.19526ZM17.0428 17.0428H14.078V12.4022C14.078 11.2968 14.0585 9.87101 12.535 9.87101C10.9921 9.87101 10.7577 11.078 10.7577 12.3241V17.0428H7.79681V7.49603H10.6405V8.8007H10.6796C11.0741 8.05071 12.0429 7.25775 13.4843 7.25775C16.4881 7.25775 17.0428 9.23429 17.0428 11.8046V17.0428V17.0428Z" fill="#6B7280"/>
</g>
<defs>
<clipPath id="clip0_1521_6216">
<rect width="19.9998" height="19.9998" fill="white"/>
</clipPath>
</defs>
</svg>
