<svg width="20" height="20" viewBox="0 0 20 20" fill="none" xmlns="http://www.w3.org/2000/svg">
<path d="M6.29174 18.125C13.837 18.125 17.9651 11.8723 17.9651 6.45163C17.9651 6.27585 17.9612 6.09617 17.9534 5.92039C18.7564 5.33964 19.4494 4.62031 19.9998 3.79619C19.2519 4.12894 18.4579 4.34625 17.6448 4.44071C18.5009 3.92753 19.1419 3.12134 19.449 2.17159C18.6436 2.64891 17.7628 2.98562 16.8444 3.16729C16.2256 2.50975 15.4074 2.07438 14.5163 1.9285C13.6252 1.78261 12.7109 1.93433 11.9147 2.3602C11.1185 2.78607 10.4847 3.46236 10.1114 4.28453C9.73816 5.10669 9.6461 6.02893 9.84952 6.90866C8.21867 6.82682 6.62322 6.40317 5.16661 5.66517C3.70999 4.92717 2.42472 3.8913 1.39413 2.62471C0.870325 3.52781 0.710041 4.59647 0.945851 5.6135C1.18166 6.63053 1.79587 7.51961 2.66365 8.10005C2.01217 8.07937 1.37497 7.90397 0.80468 7.58834V7.63912C0.804097 8.58685 1.13174 9.50554 1.73191 10.239C2.33208 10.9725 3.16774 11.4755 4.09684 11.6625C3.49335 11.8276 2.85996 11.8517 2.24568 11.7328C2.50786 12.5479 3.01795 13.2608 3.70478 13.772C4.3916 14.2832 5.22089 14.5672 6.0769 14.5844C4.62365 15.7259 2.82845 16.3451 0.98046 16.3422C0.652733 16.3417 0.32533 16.3216 0 16.282C1.87736 17.4864 4.06124 18.1261 6.29174 18.125Z" fill="#6B7280"/>
</svg>
