<svg width="32" height="32" viewBox="0 0 32 32" fill="none" xmlns="http://www.w3.org/2000/svg">
<g clip-path="url(#clip0_1313_1850)">
<path d="M5.20685 27.7521C4.41812 28.8563 3.66884 29.5662 2.95898 29.8422V30H11.1223V29.8422C9.62372 29.2901 8.59837 28.6591 7.9674 28.0282C7.33641 27.3971 7.06036 26.6084 7.06036 25.7409C7.06036 25.1493 7.17867 24.4 7.49416 23.4535L8.79555 19.3521L13.804 3.85352L18.9701 19.3521L21.1786 26.0563C21.4152 26.7662 21.5335 27.3578 21.5335 27.831C21.5335 28.4619 21.2574 28.9352 20.7842 29.2507C20.3109 29.5662 19.5222 29.7634 18.4574 29.8422V30H29.3418V29.8422C28.5531 29.7634 27.8827 29.4084 27.37 28.738C26.8574 28.0676 26.3053 26.8845 25.7531 25.1493L17.9842 2H14.2378L7.53359 22.6648C6.78431 24.9521 5.99558 26.6479 5.20685 27.7521Z" fill="white"/>
</g>
<defs>
<clipPath id="clip0_1313_1850">
<rect width="26.5123" height="28" fill="white" transform="translate(2.89355 2)"/>
</clipPath>
</defs>
</svg>
