<svg width="32" height="32" viewBox="0 0 32 32" fill="none" xmlns="http://www.w3.org/2000/svg">
<path fill-rule="evenodd" clip-rule="evenodd" d="M30 2H2V30H30V2Z" fill="#0043FF"/>
<path d="M18.8153 17.7524C18.8804 18.3241 19.287 18.7913 20.0732 18.7913L20.0744 18.7936C20.8134 18.7936 21.293 18.3263 21.3447 17.6513C21.3472 17.5833 21.3754 17.5187 21.4235 17.4706C21.4716 17.4225 21.5362 17.3943 21.6042 17.3918H22.9026C22.9713 17.3921 23.0371 17.4196 23.0857 17.4681C23.1343 17.5167 23.1618 17.5826 23.1621 17.6513C23.1621 19.39 21.8648 20.6255 20.0744 20.6255C18.284 20.6255 17.1686 19.3136 16.9867 17.7557C16.857 16.5473 16.857 15.3284 16.9867 14.1199C17.1686 12.5609 18.2829 11.2456 20.0732 11.2456C21.8636 11.2456 23.1609 12.48 23.1609 14.2199C23.1606 14.2886 23.1332 14.3544 23.0846 14.403C23.036 14.4516 22.9702 14.479 22.9015 14.4793H21.6042C21.5362 14.4768 21.4716 14.4487 21.4235 14.4006C21.3754 14.3524 21.3472 14.2879 21.3447 14.2199C21.293 13.5448 20.8123 13.0776 20.0732 13.0776C19.2825 13.0776 18.8804 13.5448 18.8153 14.1165C18.6856 15.325 18.6856 16.5439 18.8153 17.7524Z" fill="white"/>
<path fill-rule="evenodd" clip-rule="evenodd" d="M11.9832 20.5113C13.5782 20.5113 14.6946 19.1993 14.8755 17.6414C15.0052 16.5284 15.0052 15.404 14.8755 14.2909C14.6935 12.733 13.5782 11.4211 11.9832 11.4211H9.25946C9.19074 11.4214 9.12491 11.4488 9.07632 11.4974C9.02773 11.546 9.0003 11.6118 9 11.6806V20.2507C9.0003 20.3194 9.02773 20.3852 9.07632 20.4338C9.12491 20.4824 9.19074 20.5098 9.25946 20.5101L11.9832 20.5113ZM10.942 18.7029C10.9247 18.7037 10.9074 18.7009 10.8912 18.6945C10.8751 18.6882 10.8605 18.6785 10.8484 18.666C10.8363 18.6536 10.8269 18.6388 10.821 18.6225C10.8151 18.6061 10.8127 18.5888 10.814 18.5715V13.3766C10.8128 13.3593 10.8154 13.3419 10.8215 13.3257C10.8275 13.3094 10.837 13.2947 10.8492 13.2824C10.8614 13.27 10.8761 13.2605 10.8923 13.2542C10.9085 13.248 10.9258 13.2453 10.9431 13.2463H11.981C12.5774 13.2463 12.9795 13.7271 13.0447 14.2977C13.1744 15.4107 13.1744 16.5351 13.0447 17.6482C12.9795 18.2199 12.5774 18.6995 11.981 18.6995H10.9454L10.942 18.7029Z" fill="white"/>
</svg>
