<svg width="32" height="32" viewBox="0 0 32 32" fill="none" xmlns="http://www.w3.org/2000/svg">
<g clip-path="url(#clip0_1313_1402)">
<g clip-path="url(#clip1_1313_1402)">
<path d="M2.15497 8.84477L14.5977 0.686928C15.0143 0.413807 15.5016 0.268311 15.9997 0.268311C16.4978 0.268311 16.9851 0.413807 17.4016 0.686928L29.8444 8.84477C30.1991 9.07736 30.4904 9.39456 30.6921 9.76778C30.8937 10.141 30.9993 10.5585 30.9993 10.9827V21.5535C30.9993 22.4155 30.5654 23.2195 29.8444 23.6915L17.4016 31.8493C16.9851 32.1224 16.4978 32.2679 15.9997 32.2679C15.5016 32.2679 15.0143 32.1224 14.5977 31.8493L2.15497 23.6915C1.80022 23.4589 1.50891 23.1417 1.30729 22.7685C1.10566 22.3953 1.00006 21.9777 1 21.5535V10.9827C1 10.1207 1.43399 9.31676 2.15497 8.84477Z" fill="#0025FF"/>
<path d="M16.9998 11.2688V10.2689H15.3328C15.2445 10.2689 15.1598 10.2338 15.0974 10.1713C15.0349 10.1089 14.9998 10.0242 14.9998 9.93587V7.60191C14.9998 7.41792 15.1498 7.26892 15.3328 7.26892H17.6668C17.8508 7.26892 17.9998 7.41892 17.9998 7.60191V11.2688H22.9997C23.2649 11.2688 23.5192 11.3742 23.7067 11.5617C23.8943 11.7493 23.9996 12.0036 23.9996 12.2688V16.2687H24.6666C24.8506 16.2687 24.9996 16.4187 24.9996 16.6017V19.9357C24.9996 20.1197 24.8496 20.2687 24.6666 20.2687H23.9996V22.2686C23.9996 22.5338 23.8943 22.7882 23.7067 22.9757C23.5192 23.1633 23.2649 23.2686 22.9997 23.2686H8.99996C8.73475 23.2686 8.4804 23.1633 8.29287 22.9757C8.10533 22.7882 7.99998 22.5338 7.99998 22.2686V20.2687H7.33299C7.24468 20.2687 7.15998 20.2336 7.09753 20.1711C7.03508 20.1087 7 20.024 7 19.9357V16.6017C7 16.4177 7.15 16.2687 7.33299 16.2687H7.99998V12.2688C7.99998 12.0036 8.10533 11.7493 8.29287 11.5617C8.4804 11.3742 8.73475 11.2688 8.99996 11.2688H16.9998Z" fill="white"/>
<path d="M18.7139 19.1494C18.7513 19.1869 18.7957 19.2166 18.8446 19.2368C18.8935 19.2571 18.946 19.2675 18.9989 19.2675C19.0518 19.2675 19.1042 19.2571 19.1531 19.2368C19.202 19.2166 19.2465 19.1869 19.2839 19.1494L21.3808 17.0535C21.4183 17.0161 21.448 16.9716 21.4682 16.9227C21.4885 16.8738 21.4989 16.8214 21.4989 16.7685C21.4989 16.7156 21.4885 16.6631 21.4682 16.6142C21.448 16.5653 21.4183 16.5209 21.3808 16.4835L20.9508 16.0535C20.9134 16.0161 20.869 15.9864 20.8201 15.9661C20.7712 15.9459 20.7188 15.9354 20.6658 15.9354C20.6129 15.9354 20.5605 15.9459 20.5116 15.9661C20.4627 15.9864 20.4183 16.0161 20.3809 16.0535L18.9999 17.4345L18.4509 16.8865C18.4135 16.849 18.369 16.8194 18.3201 16.7991C18.2712 16.7788 18.2188 16.7684 18.1659 16.7684C18.113 16.7684 18.0606 16.7788 18.0117 16.7991C17.9628 16.8194 17.9183 16.849 17.8809 16.8865L17.4509 17.3165C17.4135 17.3539 17.3838 17.3983 17.3635 17.4472C17.3433 17.4961 17.3328 17.5485 17.3328 17.6015C17.3328 17.6544 17.3433 17.7068 17.3635 17.7557C17.3838 17.8046 17.4135 17.849 17.4509 17.8865L18.7139 19.1494ZM12.048 19.1494C12.0855 19.1869 12.1299 19.2166 12.1788 19.2368C12.2277 19.2571 12.2801 19.2675 12.333 19.2675C12.386 19.2675 12.4384 19.2571 12.4873 19.2368C12.5362 19.2166 12.5806 19.1869 12.618 19.1494L14.714 17.0535C14.7514 17.0161 14.7811 16.9716 14.8014 16.9227C14.8216 16.8738 14.832 16.8214 14.832 16.7685C14.832 16.7156 14.8216 16.6631 14.8014 16.6142C14.7811 16.5653 14.7514 16.5209 14.714 16.4835L14.284 16.0535C14.2466 16.0161 14.2021 15.9864 14.1532 15.9661C14.1043 15.9459 14.0519 15.9354 13.999 15.9354C13.9461 15.9354 13.8937 15.9459 13.8448 15.9661C13.7959 15.9864 13.7514 16.0161 13.714 16.0535L12.333 17.4345L11.785 16.8865C11.7476 16.849 11.7032 16.8194 11.6543 16.7991C11.6054 16.7788 11.553 16.7684 11.5 16.7684C11.4471 16.7684 11.3947 16.7788 11.3458 16.7991C11.2969 16.8194 11.2525 16.849 11.2151 16.8865L10.7851 17.3165C10.7476 17.3539 10.7179 17.3983 10.6977 17.4472C10.6774 17.4961 10.667 17.5485 10.667 17.6015C10.667 17.6544 10.6774 17.7068 10.6977 17.7557C10.7179 17.8046 10.7476 17.849 10.7851 17.8865L12.048 19.1494Z" fill="#0025FF"/>
</g>
</g>
<defs>
<clipPath id="clip0_1313_1402">
<rect width="32" height="32" fill="white"/>
</clipPath>
<clipPath id="clip1_1313_1402">
<rect width="29.9993" height="32" fill="white" transform="translate(1 0.268311)"/>
</clipPath>
</defs>
</svg>
