<svg width="32" height="32" viewBox="0 0 32 32" fill="none" xmlns="http://www.w3.org/2000/svg">
<path d="M7.39351 11.7564H8.82515C9.86206 11.7564 10.6221 11.456 11.1052 10.855C11.5883 10.2423 11.8298 9.38213 11.8298 8.27452C11.8298 7.1669 11.6059 6.32441 11.1582 5.74704C10.7104 5.15788 9.99167 4.8633 9.00189 4.8633H7.39351V11.7564ZM4 14.6197V2H8.96655C11.0639 2 12.6487 2.52435 13.721 3.57305C14.805 4.62175 15.3471 6.15355 15.3471 8.16847C15.3471 10.2423 14.7756 11.8389 13.6326 12.9583C12.5015 14.0659 10.8813 14.6197 8.77213 14.6197H4Z" fill="white"/>
<path d="M17.8871 17.1497H23.1718C24.0556 17.1497 24.7861 17.2381 25.3635 17.4149C25.9526 17.5798 26.418 17.8155 26.7598 18.1219C27.1132 18.4164 27.3607 18.764 27.5021 19.1647C27.6435 19.5535 27.7142 19.9718 27.7142 20.4196C27.7142 20.9852 27.5964 21.4918 27.3607 21.9396C27.1368 22.3873 26.7362 22.7644 26.1588 23.0708C26.854 23.4125 27.343 23.8308 27.6258 24.3257C27.9086 24.8088 28.05 25.3803 28.05 26.0401C28.05 26.535 27.9675 27.0122 27.8026 27.4718C27.6376 27.9195 27.3666 28.3143 26.9895 28.656C26.6125 28.9977 26.1117 29.2687 25.4872 29.469C24.8745 29.6693 24.1204 29.7695 23.2248 29.7695H17.8871V17.1497ZM21.0862 21.9926H22.9244C23.5135 21.9926 23.9142 21.8983 24.1262 21.7098C24.3383 21.5095 24.4444 21.2208 24.4444 20.8438C24.4444 20.4431 24.3207 20.1544 24.0732 19.9777C23.8258 19.7892 23.3839 19.6949 22.7476 19.6949H21.0862V21.9926ZM21.0862 27.2243H22.9421C23.6608 27.2243 24.1498 27.1006 24.409 26.8532C24.6683 26.5939 24.7979 26.2463 24.7979 25.8103C24.7979 25.3744 24.6683 25.0444 24.409 24.8206C24.1616 24.5849 23.708 24.4671 23.0481 24.4671H21.0862V27.2243Z" fill="white"/>
<path d="M10.0548 22.6996H4.67668V22.1946H10.0548V16.4882H10.585V22.1946H15.9379V22.6996H10.585V28.4313H10.0548V22.6996Z" fill="white"/>
</svg>
