<svg width="20" height="20" viewBox="0 0 20 20" fill="none" xmlns="http://www.w3.org/2000/svg">
<path fillRule="evenodd" clipRule="evenodd" d="M10.001 0.000976562C4.48037 0.000976562 0.000976562 4.48037 0.000976562 10.001C0.000976562 15.5216 4.48037 20.001 10.001 20.001C15.5107 20.001 20.001 15.5216 20.001 10.001C20.001 4.48037 15.5107 0.000976562 10.001 0.000976562ZM16.6062 4.61052C17.7992 6.06388 18.5151 7.91854 18.5368 9.92504C18.2548 9.87085 15.4348 9.29598 12.5932 9.65391C12.5281 9.51291 12.4739 9.36104 12.4088 9.20923C12.2352 8.7971 12.04 8.3741 11.8448 7.97279C14.9901 6.69298 16.4218 4.84913 16.6062 4.61052ZM10.001 1.47603C12.1702 1.47603 14.155 2.28948 15.6626 3.62354C15.5107 3.84046 14.22 5.56497 11.1832 6.70379C9.78404 4.1333 8.2331 2.02918 7.99448 1.7038C8.63435 1.55195 9.30685 1.47603 10.001 1.47603ZM6.3676 2.27863C6.59535 2.58232 8.11379 4.69729 9.5346 7.21354C5.54328 8.27648 2.01833 8.25479 1.63872 8.25479C2.19186 5.60835 3.98145 3.40661 6.3676 2.27863ZM1.45434 10.0119C1.45434 9.92504 1.45434 9.83829 1.45434 9.75154C1.8231 9.76235 5.96627 9.8166 10.2287 8.53679C10.4782 9.01398 10.706 9.50204 10.9229 9.9901C10.8144 10.0227 10.6951 10.0552 10.5867 10.0877C6.18319 11.5085 3.84046 15.3914 3.64523 15.7168C2.28948 14.2092 1.45434 12.2027 1.45434 10.0119ZM10.001 18.5476C8.02698 18.5476 6.20488 17.8752 4.76236 16.7472C4.91421 16.4327 6.64954 13.0921 11.4652 11.411C11.4869 11.4001 11.4977 11.4001 11.5194 11.3893C12.7233 14.502 13.2114 17.1159 13.3415 17.8643C12.3112 18.309 11.1832 18.5476 10.001 18.5476ZM14.7624 17.0834C14.6756 16.5628 14.22 14.0682 13.1029 10.9988C15.7819 10.5758 18.1246 11.27 18.4175 11.3676C18.0487 13.7429 16.6821 15.7927 14.7624 17.0834Z" fill="#FAFAFA"/>
</svg>
