<svg width="32" height="32" viewBox="0 0 32 32" fill="none" xmlns="http://www.w3.org/2000/svg">
<path fill-rule="evenodd" clip-rule="evenodd" d="M27.2178 19.1694C27.4104 18.6404 27.5524 17.7116 26.8569 17.2076C26.771 16.627 26.393 16.3867 26.0394 16.1845L26.0385 16.1827C25.7599 15.4161 25.4479 15.2485 24.6394 15.1447C24.3238 14.3974 23.613 14.0179 22.6488 14.1346C22.3004 13.829 21.5603 13.2602 20.6476 13.5289C19.8923 13.2132 19.0974 12.9871 18.364 13.4314C17.5168 13.1684 17.0309 13.2177 16.5073 13.522C16.1006 13.418 15.4827 13.3072 14.8842 13.489C14.6128 13.1035 14.4612 12.9059 13.5151 12.7716C12.7456 12.6624 12.9309 11.4498 12.6655 10.5474C12.45 9.81444 11.9921 9.57569 11.8504 9.45106C11.9765 8.52146 11.7145 8.17897 11.4316 7.86054C11.1324 5.32269 10.7321 4.26303 10.3476 3.64797C10.1502 3.33216 9.84563 2.9857 9.5073 2.74848C9.49464 2.07888 9.14537 0.896777 8.47171 1.02294C7.95875 0.316892 7.29268 0 6.80025 0C6.29353 0 5.84622 0.451734 5.97889 1.04437C6.03551 1.2975 6.16691 1.58736 6.21231 1.69706C5.85753 1.59305 5.06268 1.40106 4.91029 1.80712C4.85476 1.95507 4.96084 2.3218 5.94055 3.1758C5.48809 3.54098 5.48701 4.08949 5.6554 4.33159C5.05002 4.69867 4.49591 5.14534 4.11363 5.48918C3.87406 5.70488 4.1252 6.04592 4.06723 6.18546C3.95726 6.45008 3.97906 6.8159 4.15586 6.95752C4.6747 7.3729 5.83411 7.51598 6.54621 7.37553C6.58654 7.61971 6.66477 7.77255 6.93997 7.99647C6.87061 8.11512 6.72292 8.47814 6.66839 8.64174C6.53563 9.04002 6.61982 9.33087 6.74074 9.48091C6.40712 9.94883 6.61006 10.4606 6.84221 10.726C6.63158 11.2574 6.38062 11.4202 6.30899 12.0749C6.25265 12.5908 6.51907 13.0117 6.65582 13.1573C6.55308 13.4641 6.44293 13.7841 6.4488 14.0563C6.4555 14.369 6.57958 14.6461 6.84826 14.8006C6.82511 14.8482 6.50189 15.4522 6.43126 15.8714C6.3657 16.2604 6.49222 16.5727 6.59423 16.7195C6.43407 17.147 6.42393 17.5646 6.50533 17.8598C6.5916 18.1729 6.72066 18.4243 7.07626 18.649C7.00608 19.2147 6.98239 19.9826 7.32225 20.6773C7.55919 21.1617 8.16467 21.6204 8.25221 21.8105C8.4018 22.1354 8.32149 22.6951 8.84268 23.0584C8.84069 23.0955 8.68866 23.8997 9.6122 24.4477C9.85467 24.5915 10.0034 24.7275 9.96708 25.1389C9.9376 25.4723 9.88487 26.0942 10.396 26.6489C10.3365 27.1506 10.3186 27.6074 10.998 28.1307C10.7709 29.2603 11.4624 29.7189 11.8267 29.8665V30.368C11.8267 30.6702 11.7292 30.696 11.5286 30.7993C11.1992 30.9691 10.9313 31.1572 10.9313 31.5199C10.9313 31.7483 11.1336 31.9572 11.3806 31.9922C11.5082 32.0102 12.2087 31.9914 12.3969 31.9914C12.8448 31.9914 13.0344 31.6822 13.0344 31.2319C13.0344 31.0096 13.0344 30.3926 13.0344 29.8135C13.0793 29.7955 13.1226 29.775 13.1636 29.7516C13.6233 29.4881 13.8337 29.0716 13.7799 28.2713C14.2575 27.8088 14.0857 27.2626 14.049 27.0901C14.2737 26.9155 14.2938 26.7509 14.2938 26.7509C14.2938 26.7509 14.5052 26.9482 14.523 27.2762C14.5409 27.6066 14.4607 27.71 14.4607 28.0337C14.4607 28.31 14.5255 28.56 14.6474 28.7564C14.7784 28.9802 14.9736 29.1617 15.2075 29.2763V30.368C15.2075 30.6702 15.11 30.696 14.9094 30.7993C14.5799 30.9691 14.3121 31.1572 14.3121 31.5199C14.3121 31.7483 14.5143 31.9572 14.7612 31.9922C14.8888 32.0102 15.5894 31.9914 15.7778 31.9914C16.2255 31.9914 16.4152 31.6822 16.4152 31.2319C16.4152 30.9337 16.4152 29.9262 16.4152 29.2515C16.5312 29.1884 17.1074 28.8418 17.1074 28.1985C17.1074 27.7434 17.0253 27.7014 17.0253 27.4492C17.0253 27.1745 17.2358 27.0515 17.2358 26.5711C17.2358 26.1722 17.0143 25.9651 17.0205 25.7499C17.0309 25.3903 17.3991 25.3097 17.4508 24.7684C17.4954 24.3004 17.3014 24.0118 17.1921 23.8952C17.96 24.4893 18.5993 23.3388 19.0635 23.1181C19.0607 23.6538 19.0794 24.8736 19.5372 25.3776C19.6046 25.4518 19.6411 25.5483 19.6344 25.6482C19.6116 25.9922 19.5805 26.62 19.6326 27.0554C19.7042 27.6544 19.9058 28.0641 20.2938 28.3034C20.2819 28.6435 20.396 29.4249 20.9707 29.7152C21.0136 29.7369 21.0568 29.756 21.0997 29.7731V30.368C21.0997 30.6702 21.0021 30.696 20.8015 30.7993C20.4722 30.9691 20.2043 31.1572 20.2043 31.5199C20.2043 31.7483 20.4066 31.9572 20.6535 31.9922C20.7811 32.0102 21.4815 31.9914 21.6699 31.9914C22.1178 31.9914 22.3074 31.6822 22.3074 31.2319C22.3074 31.0085 22.3074 30.3868 22.3074 29.8052C22.961 29.4735 23.122 28.8037 23.1475 28.552C23.291 28.5201 23.5325 28.4054 23.6934 28.1044C23.7088 28.6293 24.0272 29.078 24.4803 29.2811V30.368C24.4803 30.6702 24.3826 30.696 24.1827 30.7993C23.8526 30.9691 23.5849 31.1572 23.5849 31.5199C23.5849 31.7483 23.7875 31.9572 24.0344 31.9922C24.1619 32.0102 24.8619 31.9914 25.0509 31.9914C25.4986 31.9914 25.6885 31.6822 25.6885 31.2319C25.6885 30.9285 25.6885 29.8902 25.6885 29.216C26.0801 28.9868 26.3496 28.5633 26.3559 28.081C26.3577 27.8905 26.3197 27.7091 26.2501 27.5447C26.1868 27.3973 26.2031 27.2281 26.2827 27.0891C26.3604 26.9532 26.4427 26.8096 26.4482 26.5931C26.459 26.0961 26.147 25.8565 26.147 25.5587C26.147 25.0722 26.4545 25.0012 26.5332 24.4326C26.582 24.0788 26.5178 23.8377 26.3514 23.3929C26.2157 23.0307 26.4491 22.8449 26.5531 22.5344C26.6535 22.2325 26.5558 21.8308 26.4427 21.5412C26.7303 21.2376 27.5895 20.2972 27.2178 19.1694Z" fill="#030D54"/>
<path fill-rule="evenodd" clip-rule="evenodd" d="M7.12323 5.31122C7.0932 5.34685 7.02546 5.33365 6.93475 5.30127C6.84495 5.26962 6.6789 5.19293 6.53511 5.21156C6.39131 5.23019 6.31635 5.32868 6.27891 5.33962C6.25973 5.34559 6.22509 5.33211 6.21053 5.29829C6.14614 5.14789 6.30133 5.00012 6.39132 4.95879C6.63812 4.84565 6.88691 4.93111 7.06019 5.12745C7.11671 5.19157 7.15325 5.27559 7.12323 5.31122Z" fill="#FFFFFE"/>
<path fill-rule="evenodd" clip-rule="evenodd" d="M26.662 18.201C26.6005 17.8082 26.2388 17.8422 26.1664 17.3171C26.0986 16.8336 25.546 16.8838 25.3959 16.4619C25.2078 15.9335 25.2394 15.9604 24.4734 15.826C23.8675 15.7197 24.0819 14.9999 23.3113 14.8387C22.7855 14.7285 22.5749 15.029 22.2368 14.7043C21.9304 14.41 21.4372 14.0976 20.7595 14.2234C20.0495 14.3551 19.736 13.4975 18.6434 14.0797C18.2298 14.3001 17.6493 13.6767 16.8522 14.1334C16.4281 14.3765 15.7996 13.9463 14.9001 14.1964C14.2435 14.3789 14.5046 13.538 13.4849 13.4707C12.0273 13.3744 12.2892 11.6415 12.0011 10.7667C11.7974 10.1484 11.5309 10.2086 11.2618 9.83182C11.0235 9.49829 11.2618 9.13211 11.1541 8.70153C11.0674 8.35471 10.8036 8.40463 10.7235 7.73268C10.5071 5.91643 10.1757 4.67617 9.75471 4.01887C9.48078 3.59119 9.06956 3.24002 8.80937 3.16966C8.92079 2.23789 8.52567 1.66343 8.37093 1.72212C8.30057 1.74889 8.33475 2.18317 8.33475 2.18317C8.33475 2.18317 7.90653 0.951598 6.90187 0.711487C6.71222 0.666178 6.63589 0.758334 6.6576 0.872466C6.75464 1.38488 7.13746 2.31512 7.76319 3.10383C7.05018 3.10383 6.26881 3.59246 6.26953 3.98505C6.26998 4.20309 7.35252 3.60467 7.49405 3.91116C7.58341 4.10461 7.19941 4.37953 7.33262 4.55706C7.49405 4.77239 8.42293 4.31442 8.51672 4.55706C8.61602 4.81391 7.92462 4.98764 7.92462 5.20297C7.92462 5.4618 8.51672 5.52592 8.51672 5.74116C8.51672 6.08166 7.70938 5.84878 7.70938 6.06411C7.70938 6.27944 8.40801 6.39231 8.35519 6.6562C8.30138 6.92535 7.817 6.76382 7.38643 6.97916C7.19688 7.07393 7.16812 7.33258 7.38643 7.46354C7.65557 7.62506 7.73281 7.7977 7.64128 8.05608C7.51811 8.40391 7.44024 8.54001 7.33262 8.86296C7.25647 9.09132 7.33262 9.18592 7.44024 9.18592C7.66217 9.18592 7.70938 9.34744 7.44024 9.67039C7.26705 9.87812 7.21614 10.0534 7.33262 10.2086C7.49405 10.4239 7.54786 10.5315 7.54786 10.6931C7.54786 11.2948 6.79497 11.8363 7.06348 12.5231C7.20076 12.8741 7.6345 12.7632 7.27239 13.5155C7.11169 13.8495 7.08283 14.1855 7.33262 14.2992C7.66136 14.4491 7.64752 14.6571 7.35243 15.3164C6.7815 16.5917 7.48926 16.1633 7.22491 17.0443C7.06348 17.5826 7.22491 17.9054 7.38643 18.0131C7.70938 18.2284 7.817 18.3361 7.76319 18.8743C7.71897 19.316 7.72856 19.9881 7.94479 20.3486C8.40584 21.1176 8.86029 21.1305 9.055 22.1038C9.16262 22.642 9.33626 22.4181 9.48557 22.642C9.59319 22.8035 9.53938 22.9649 9.53938 23.1803C9.53938 23.9894 10.5082 23.7185 10.6697 24.8488C10.716 25.1729 10.562 25.4408 10.7235 25.8714C10.818 26.1234 11.1555 26.3474 11.1003 26.6788C11.0464 27.0018 11.0464 27.2708 11.2618 27.4324C11.4444 27.5694 11.7955 27.8617 11.6923 28.2397C11.5309 28.8318 11.8538 29.2624 12.3382 29.2624C12.6993 29.2624 13.1456 29.1009 13.0918 28.5088C13.061 28.1698 13.0807 27.9364 13.3071 27.7553C13.5762 27.54 13.2329 27.1602 13.3609 26.8403C13.4686 26.5711 13.7016 26.5389 13.8022 26.286C13.9673 25.8712 13.7417 25.6918 13.6945 25.4559C13.61 25.0336 13.8142 24.8851 13.9527 24.4993C14.0927 24.1093 13.9128 23.655 13.8592 23.3131C13.8179 23.1063 13.7821 22.8713 13.7539 22.6199C13.6694 21.8622 13.7896 21.1332 13.9734 21.1176C14.1572 21.102 14.3697 21.7658 14.4733 22.6172C14.5009 22.844 14.55 23.0572 14.593 23.2483C14.7947 23.1951 14.9633 23.1323 15.3388 23.3489C15.4812 23.4311 15.7686 23.6086 16.0755 23.4781C16.6825 23.2202 17.017 22.5279 17.4612 23.1608C17.7761 23.6095 18.2075 22.4598 18.9664 22.3578C18.953 21.5895 19.0629 21.1472 19.2344 21.1327C19.4487 21.1145 19.6777 21.7691 19.7754 22.9224C19.7852 23.0378 19.7948 23.1512 19.8036 23.262C19.8729 23.8699 19.8175 24.6189 20.1427 24.9565C20.6759 25.5099 20.0188 27.2966 20.681 27.6796C21.1956 27.9773 20.7936 28.4541 21.1653 28.9498C21.4883 29.3804 22.0781 29.3136 22.2956 28.896C22.5738 28.3622 22.2881 28.173 22.8877 27.7999C23.4343 27.4596 23.0879 26.6294 23.1209 26.1634C23.1569 25.6562 23.7092 25.7947 23.8567 25.4409C23.9824 25.1402 23.6577 24.6636 24.1262 24.2029C24.6136 23.7228 24.8316 23.2701 24.7131 22.7956C24.7104 22.7875 24.7077 22.7793 24.705 22.7712C24.6959 22.7412 24.6869 22.7111 24.6778 22.6809C24.6733 22.6679 24.6688 22.655 24.6643 22.642C24.6543 22.6169 24.6462 22.5891 24.6426 22.5592C24.6118 22.4464 24.5892 22.3317 24.5928 22.2146C24.5991 22.0178 24.6896 21.8466 24.7927 21.6818C25.7296 20.1853 25.5478 19.0099 25.2711 17.8662C25.2458 17.7618 25.2394 17.6551 25.2783 17.631C25.3163 17.6067 25.3805 17.6215 25.5089 17.7514C25.6374 17.8814 25.7495 18.0913 25.8372 18.3275C25.934 18.59 26.0308 18.9102 26.0733 19.2765C26.1158 19.6426 26.1221 20.0519 26.0489 20.4811C26 20.7655 25.9078 21.056 25.7748 21.3154C25.7414 21.3827 25.7034 21.4481 25.6627 21.5117C26.1465 21.2596 26.8492 20.1429 26.6023 19.3994C26.4169 18.8396 26.7705 18.9023 26.662 18.201Z" fill="#6CC7BE"/>
<path fill-rule="evenodd" clip-rule="evenodd" d="M8.36605 8.76832C8.2322 8.77917 8.12585 9.14671 8.16175 9.5894C8.19766 10.032 8.36216 10.382 8.49601 10.3711C8.62985 10.3603 8.6824 9.99266 8.6465 9.55006C8.61059 9.10746 8.4999 8.75737 8.36605 8.76832ZM8.0629 11.351C7.92906 11.3619 7.82271 11.7295 7.85861 12.1721C7.89451 12.6147 8.05893 12.9647 8.19277 12.9539C8.32662 12.9431 8.36306 12.5755 8.32716 12.1329C8.29126 11.6902 8.19675 11.3402 8.0629 11.351ZM8.72183 17.4931C8.54629 16.8699 8.28592 16.398 8.14014 16.439C7.99435 16.4801 8.0185 17.0186 8.19395 17.6418C8.3694 18.2649 8.62985 18.7369 8.77555 18.6958C8.92133 18.6547 8.89728 18.1163 8.72183 17.4931ZM9.66156 13.7898C9.67359 13.6755 9.66021 13.4707 9.62096 13.2467C9.58777 13.0572 9.52853 12.8809 9.46115 12.7503C9.38564 12.6042 9.29972 12.5156 9.22846 12.5303C9.15376 12.5458 9.10167 12.6643 9.07924 12.8377C9.05862 12.9964 9.07752 13.1552 9.11514 13.3444C9.16542 13.5976 9.21462 13.7147 9.30768 13.8764C9.37515 13.9933 9.48277 14.076 9.54119 14.0537C9.61761 14.0248 9.64772 13.9207 9.66156 13.7898ZM8.864 14.9461C8.79608 14.5431 8.57017 14.101 8.40394 14.1373C8.23763 14.1737 8.24595 14.642 8.31595 15.0214C8.40937 15.5279 8.68575 15.9127 8.83198 15.8808C8.97813 15.8488 8.9255 15.311 8.864 14.9461ZM20.8705 15.8991C20.532 15.819 20.2309 15.8662 20.1982 16.0047C20.1654 16.1431 20.4134 16.3202 20.7519 16.4004C21.0905 16.4805 21.3915 16.4332 21.4243 16.2949C21.457 16.1564 21.2091 15.9792 20.8705 15.8991ZM20.7076 23.033C20.5458 23.0747 20.5048 23.4579 20.6159 23.8889C20.7271 24.3199 20.9483 24.6355 21.11 24.5938C21.2717 24.5521 21.2084 24.2131 21.0972 23.7821C20.9861 23.3511 20.8693 22.9912 20.7076 23.033ZM9.4635 20.5262C9.32305 20.5934 9.3557 21.1343 9.61381 21.673C9.87192 22.2117 10.2577 22.5443 10.3982 22.477C10.5387 22.4096 10.3807 21.9679 10.1226 21.4293C9.8645 20.8905 9.60404 20.4589 9.4635 20.5262ZM20.3894 15.0548C20.4045 14.9117 20.0589 14.6987 19.6056 14.6507C19.1522 14.6028 18.7626 14.7383 18.7475 14.8813C18.7324 15.0244 19.0974 15.1209 19.5508 15.1688C20.0042 15.2167 20.3742 15.1979 20.3894 15.0548ZM23.6669 16.4812C23.7483 16.34 23.4842 15.9753 23.0367 15.7155C22.5893 15.4559 22.1285 15.3996 22.0466 15.5408C21.9645 15.682 22.3199 15.8813 22.7673 16.141C23.2147 16.4007 23.5846 16.6223 23.6669 16.4812ZM21.322 22.1184C21.2488 22.1399 21.1416 22.0078 21.0119 21.7896C20.8812 21.5712 20.7232 21.2683 20.5485 20.9347C20.3739 20.601 20.3416 20.5518 20.2373 20.3192C20.133 20.0872 20.0868 19.923 20.1461 19.876C20.2042 19.83 20.3586 19.9117 20.5508 20.0979C20.9989 20.6001 21.2658 21.1368 21.3729 21.6593C21.4149 21.9242 21.3926 22.0978 21.322 22.1184Z" fill="#030D54"/>
</svg>
