<svg width="32" height="32" viewBox="0 0 32 32" fill="none" xmlns="http://www.w3.org/2000/svg">
<path d="M12.3787 14.7939H11.4522C11.5617 14.9175 11.6431 15.048 11.6965 15.1856C11.7526 15.3232 11.7807 15.4664 11.7807 15.6152C11.7807 15.8089 11.7287 15.9914 11.6249 16.1627C11.521 16.3311 11.3848 16.4687 11.2164 16.5754C11.0451 16.6849 10.8443 16.7705 10.6141 16.8323C10.3839 16.894 10.134 16.9249 9.86449 16.9249H9.17803C9.14433 16.9502 9.10643 16.9909 9.06432 17.0471C9.02501 17.1004 9.00536 17.1523 9.00536 17.2029C9.00536 17.3264 9.05449 17.412 9.15276 17.4598C9.25102 17.5075 9.42931 17.5342 9.68761 17.5398C9.9431 17.5454 10.2014 17.5566 10.4625 17.5735C10.7236 17.5875 10.9103 17.5959 11.0226 17.5988C11.1855 17.6072 11.3469 17.6409 11.5069 17.6998C11.667 17.756 11.806 17.8304 11.9239 17.923C12.053 18.0213 12.1597 18.1476 12.2439 18.3021C12.3282 18.4537 12.3703 18.6292 12.3703 18.8285C12.3703 19.0419 12.3183 19.2426 12.2145 19.4307C12.1134 19.6188 11.9576 19.7817 11.747 19.9193C11.5252 20.0624 11.2585 20.1733 10.9468 20.252C10.638 20.3306 10.2547 20.3699 9.79711 20.3699C9.0587 20.3699 8.49718 20.28 8.11254 20.1003C7.72789 19.9207 7.53557 19.6511 7.53557 19.2917C7.53557 19.0699 7.63945 18.8875 7.84722 18.7443C8.05498 18.6011 8.37786 18.5225 8.81584 18.5084V18.4579C8.55754 18.3708 8.35539 18.2557 8.2094 18.1125C8.06621 17.9666 7.99462 17.7981 7.99462 17.6072C7.99462 17.4893 8.02269 17.3896 8.07884 17.3082C8.1378 17.2267 8.21221 17.1552 8.30205 17.0934C8.38066 17.04 8.47612 16.9951 8.58843 16.9586C8.70073 16.9193 8.79479 16.8884 8.87059 16.866V16.8196C8.49156 16.6793 8.21221 16.508 8.03252 16.3058C7.85564 16.1037 7.7672 15.8566 7.7672 15.5646C7.7672 15.1519 7.95671 14.822 8.33574 14.575C8.71758 14.3279 9.20049 14.2043 9.78447 14.2043C9.97539 14.2043 10.1593 14.2212 10.3362 14.2549C10.5159 14.2858 10.652 14.3138 10.7447 14.3391H12.3787V14.7939ZM10.4036 15.5983C10.4036 15.2698 10.3516 15.0101 10.2477 14.8192C10.1438 14.6283 9.98381 14.5328 9.76763 14.5328C9.65813 14.5328 9.56267 14.5595 9.48125 14.6129C9.39983 14.6634 9.33385 14.7378 9.28331 14.8361C9.23558 14.9315 9.20329 15.0438 9.18645 15.173C9.1696 15.2993 9.16118 15.4299 9.16118 15.5646C9.16118 15.8707 9.21453 16.1219 9.32121 16.3185C9.4279 16.515 9.57952 16.6133 9.77605 16.6133C9.9782 16.6133 10.1326 16.5248 10.2393 16.348C10.3488 16.1711 10.4036 15.9212 10.4036 15.5983ZM11.1111 19.1359C11.1111 19.0405 11.0844 18.945 11.0311 18.8495C10.9777 18.7569 10.8584 18.6811 10.6731 18.6221C10.572 18.6053 10.405 18.5941 10.1719 18.5884C9.9417 18.5828 9.62444 18.58 9.22014 18.58C9.12187 18.6642 9.03905 18.7639 8.97167 18.879C8.90709 18.9941 8.8748 19.1331 8.8748 19.296C8.8748 19.3661 8.89446 19.4434 8.93376 19.5276C8.97307 19.6118 9.03484 19.6904 9.11907 19.7634C9.21733 19.8448 9.32683 19.908 9.44756 19.9529C9.56828 20.0007 9.75078 20.0245 9.99504 20.0245C10.3572 20.0245 10.6338 19.9543 10.8247 19.814C11.0156 19.6736 11.1111 19.4476 11.1111 19.1359ZM21.1804 18.5H18.6704V18.1926C18.7322 18.1841 18.7968 18.1771 18.8641 18.1715C18.9315 18.1659 18.9877 18.1519 19.0326 18.1294C19.0944 18.1013 19.1337 18.055 19.1505 17.9904C19.1674 17.923 19.1758 17.8374 19.1758 17.7335V15.7668C19.1758 15.4776 19.1238 15.2614 19.02 15.1182C18.9189 14.9722 18.7729 14.8992 18.582 14.8992C18.4612 14.8992 18.3531 14.9189 18.2577 14.9582C18.165 14.9947 18.0794 15.041 18.0008 15.0972C17.9194 15.1561 17.8562 15.2151 17.8113 15.274C17.7664 15.333 17.7285 15.3835 17.6976 15.4257V17.6872C17.6976 17.7883 17.7088 17.8711 17.7313 17.9357C17.7565 17.9974 17.8015 18.0466 17.866 18.0831C17.911 18.1083 17.9615 18.1308 18.0176 18.1505C18.0766 18.1701 18.1384 18.1841 18.2029 18.1926V18.5H15.7982V18.1926C15.8516 18.187 15.9161 18.1799 15.9919 18.1715C16.0677 18.1631 16.1239 18.149 16.1604 18.1294C16.2194 18.0985 16.2573 18.0536 16.2741 17.9946C16.2938 17.9357 16.3036 17.8486 16.3036 17.7335V15.7668C16.3036 15.4776 16.2516 15.2614 16.1478 15.1182C16.0467 14.9722 15.9007 14.8992 15.7098 14.8992C15.5891 14.8992 15.481 14.9189 15.3855 14.9582C15.2928 14.9947 15.2072 15.041 15.1286 15.0972C15.0472 15.1561 14.984 15.2151 14.9391 15.274C14.8942 15.333 14.8563 15.3835 14.8254 15.4257V17.6872C14.8254 17.7855 14.838 17.8669 14.8633 17.9315C14.8886 17.996 14.9335 18.0466 14.998 18.0831C15.043 18.1083 15.0935 18.1308 15.1497 18.1505C15.2086 18.1701 15.2704 18.1841 15.335 18.1926V18.5H12.8123V18.1926C12.8853 18.187 12.9569 18.1799 13.0271 18.1715C13.0973 18.1631 13.1577 18.149 13.2082 18.1294C13.298 18.0957 13.3598 18.048 13.3935 17.9862C13.4272 17.9216 13.444 17.8374 13.444 17.7335V15.2825C13.444 15.1926 13.4202 15.1056 13.3724 15.0214C13.3247 14.9343 13.2672 14.8669 13.1998 14.8192C13.1492 14.7855 13.0847 14.7574 13.006 14.735C12.9302 14.7125 12.846 14.6971 12.7534 14.6887V14.3812L14.7622 14.2717L14.8254 14.3349V14.9287H14.8422C14.9208 14.8585 15.0135 14.7757 15.1202 14.6802C15.2297 14.582 15.3322 14.5034 15.4276 14.4444C15.5315 14.377 15.6649 14.3209 15.8277 14.2759C15.9905 14.231 16.1688 14.2086 16.3625 14.2086C16.6826 14.2086 16.9493 14.2787 17.1627 14.4191C17.3789 14.5567 17.5319 14.7406 17.6218 14.9708H17.6597C17.7411 14.895 17.8408 14.8066 17.9587 14.7055C18.0766 14.6016 18.1847 14.5188 18.283 14.457C18.3925 14.3868 18.5314 14.3279 18.6999 14.2802C18.8712 14.2324 19.0537 14.2086 19.2474 14.2086C19.6713 14.2086 19.997 14.3335 20.2244 14.5834C20.4547 14.8333 20.5698 15.1884 20.5698 15.6489V17.6956C20.5698 17.7995 20.5852 17.8837 20.6161 17.9483C20.647 18.0101 20.7031 18.0578 20.7845 18.0915C20.8295 18.1111 20.8842 18.1308 20.9488 18.1505C21.0162 18.1701 21.0934 18.1841 21.1804 18.1926V18.5ZM23.7492 17.8009C23.7492 18.0227 23.6664 18.215 23.5007 18.3779C23.3379 18.5407 23.1442 18.6221 22.9196 18.6221C22.6922 18.6221 22.4956 18.5421 22.33 18.3821C22.1671 18.2192 22.0857 18.0255 22.0857 17.8009C22.0857 17.5763 22.1671 17.3826 22.33 17.2197C22.4956 17.0541 22.6922 16.9713 22.9196 16.9713C23.1442 16.9713 23.3379 17.0541 23.5007 17.2197C23.6664 17.3854 23.7492 17.5791 23.7492 17.8009Z" fill="white"/>
<path d="M1.375 1.375H30.625V30.625H1.375V1.375Z" stroke="white" stroke-width="0.75"/>
</svg>
