<svg width="32" height="32" viewBox="0 0 32 32" fill="none" xmlns="http://www.w3.org/2000/svg">
<g clip-path="url(#clip0_1313_1400)">
<path d="M13.3483 29.1896C20.8788 31.7178 28.5444 26.7903 30.818 19.5564C31.437 17.5986 31.3256 16.7935 31.3256 16.7935H31.2842C31.24 17.22 31.1191 17.991 30.7231 19.2461C28.7827 25.418 21.5616 31.3456 13.4956 28.6382C9.33019 27.2393 7.23197 23.827 6.77601 22.2979L6.79354 22.2745C9.84804 27.7308 15.6011 29.9914 21.2924 28.0795C28.8229 25.5513 32.2271 16.9066 29.9484 9.67155C29.3294 7.71379 28.7878 7.12837 28.7878 7.12837L28.7517 7.14969C28.958 7.51971 29.2984 8.21602 29.6946 9.47856C31.635 15.6505 29.1633 24.8336 21.0995 27.542C16.9339 28.9411 13.2966 27.4557 12.0577 26.496V26.4662C17.6283 29.0253 23.5701 27.3575 27.0878 22.3534C31.7402 15.7336 29.577 6.67839 23.6237 2.19983C22.0166 0.990615 21.2387 0.851992 21.2387 0.851992L21.2222 0.890377C21.5988 1.06525 22.2724 1.42353 23.3081 2.20195C28.3876 6.01619 31.6102 14.9478 26.6267 22.0356C24.0477 25.6983 20.2649 26.7072 18.7175 26.6826L18.7011 26.6581C24.6646 25.3412 28.5227 20.3839 28.5227 14.1982C28.5227 6.01619 21.6194 0 14.2612 0C12.2692 0 11.5625 0.356148 11.5625 0.356148L11.5708 0.397737C11.9752 0.309231 12.7231 0.184472 14.0042 0.184472C20.2824 0.184472 27.9678 5.45211 27.9678 14.2162C27.9678 18.7438 25.4775 21.8607 24.2118 22.7821L24.1849 22.7713C28.2607 18.0795 28.563 11.7285 25.0452 6.72424C20.3929 0.104499 11.3872 -0.568354 5.43393 3.90274C3.82259 5.11302 3.45328 5.82958 3.45328 5.82958L3.4832 5.85838C3.7607 5.53849 4.29814 4.99039 5.33385 4.21198C10.4133 0.397739 19.6264 -0.0106671 24.61 7.08038C27.1889 10.7421 26.9423 14.7771 26.4421 16.2912L26.4141 16.2998C27.0456 10.0309 23.6763 4.70568 17.9851 2.79377C10.4546 0.265516 2.78894 5.19299 0.515347 12.4269C-0.1036 14.3847 0.00780567 15.1898 0.00780567 15.1898H0.0490714C0.0934292 14.7633 0.214131 13.9923 0.610257 12.7372C2.55066 6.56535 9.77171 0.637661 17.8377 3.34506C22.0031 4.74407 24.1014 8.15631 24.5573 9.68542L24.5398 9.70888C21.4853 4.2525 15.7322 1.99189 10.0409 3.90381C2.51041 6.43207 -0.893785 15.0768 1.38497 22.3118C2.00392 24.2695 2.5455 24.8549 2.5455 24.8549L2.5816 24.8336C2.37529 24.4635 2.03486 23.7673 1.63873 22.5048C-0.301662 16.3328 2.17 7.14969 10.2339 4.44124C14.3994 3.04222 18.0367 4.52761 19.2756 5.4873V5.51716C13.7051 2.95798 7.76322 4.62571 4.24554 9.62997C-0.406881 16.2497 1.75633 25.3103 7.70958 29.7835C9.31987 30.997 10.0977 31.1356 10.0977 31.1356L10.1142 31.0971C9.73767 30.9224 9.06404 30.564 8.02834 29.7857C2.94884 25.9714 -0.273807 17.0398 4.70975 9.952C7.2887 6.28918 11.0715 5.28044 12.6188 5.30497L12.6354 5.32948C6.67181 6.64639 2.81371 11.6037 2.81371 17.7895C2.81371 25.9714 9.71703 31.9876 17.0753 31.9876C19.0672 31.9876 19.774 31.6314 19.774 31.6314L19.7657 31.5898C19.3612 31.6783 18.6134 31.8031 17.3321 31.8031C11.054 31.8031 3.3687 26.5355 3.3687 17.7714C3.3687 13.2437 5.85893 10.1269 7.12469 9.20557L7.15149 9.21623C3.07572 13.9081 2.77348 20.2591 6.29116 25.2633C10.9436 31.883 19.9493 32.5559 25.9025 28.0849C27.5138 26.8746 27.8832 26.158 27.8832 26.158L27.8532 26.1292C27.5757 26.4491 27.0383 26.9971 26.0025 27.7756C20.9231 31.5898 11.71 31.9982 6.72648 24.9071C4.14753 21.2454 4.39409 17.2104 4.8944 15.6963L4.92225 15.6878C4.28783 21.9524 7.65698 27.2776 13.3483 29.1896ZM15.8745 9.32927C17.2569 9.32927 18.0347 9.56172 18.0347 9.56172L20.3299 14.3943L20.3103 14.4157L17.3518 12.6029C15.6393 11.5462 14.3932 10.997 13.3812 11.0397C12.3115 11.0599 11.6688 11.9471 11.6688 13.2362C11.708 16.5312 14.744 20.5875 17.7551 20.5875C18.9867 20.5875 19.6275 20.178 20.003 19.6832L15.5362 14.63V14.6086H21.6669C21.7508 15.0615 21.7963 15.521 21.803 15.9821C21.803 19.679 19.0591 22.6573 15.6723 22.6573C12.2681 22.6573 9.5231 19.679 9.5231 15.9821C9.52827 12.3075 12.2723 9.32927 15.8745 9.32927Z" fill="#F1F252"/>
</g>
<defs>
<clipPath id="clip0_1313_1400">
<rect width="32" height="32" fill="white"/>
</clipPath>
</defs>
</svg>
