<svg width="32" height="32" viewBox="0 0 32 32" fill="none" xmlns="http://www.w3.org/2000/svg">
<path fill-rule="evenodd" clip-rule="evenodd" d="M13.2953 30.4672V26.5524H18.449V30.5002C23.215 29.3685 26.7603 25.0843 26.7603 19.9721C26.7603 15.8112 23.7892 9.95724 20.3452 8.14675C20.809 9.76982 20.1134 11.8875 19.1859 11.702C18.8364 11.6321 18.8014 11.0833 18.7448 10.1977C18.6263 8.34147 18.4134 5.00573 15.0122 1.5C14.7402 3.94816 10.8355 8.93462 8.2932 12.1813C7.94621 12.6244 7.62459 13.0351 7.34106 13.4026C5.96933 15.1802 5.11914 17.5014 5.11914 19.9721C5.11914 25.0359 8.59752 29.2872 13.2953 30.4672ZM18.8047 22.1529C18.8047 23.74 17.5181 25.0266 15.931 25.0266C14.344 25.0266 13.0574 23.74 13.0574 22.1529C13.0574 21.4968 13.2832 20.8803 13.6475 20.4083C13.7228 20.3107 13.8082 20.2016 13.9003 20.0839L13.9003 20.0839C14.5755 19.2217 15.6125 17.8974 15.6847 17.2473C17.8246 18.6841 18.8047 21.0479 18.8047 22.1529Z" fill="#FF554A"/>
</svg>
