<svg width="20" height="20" viewBox="0 0 20 20" fill="none" xmlns="http://www.w3.org/2000/svg">
<g clip-path="url(#clip0_1321_2811)">
<path d="M18.5195 0.000976562H1.47656C0.660156 0.000976562 0 0.645508 0 1.44238V18.5557C0 19.3525 0.660156 20.001 1.47656 20.001H18.5195C19.3359 20.001 20 19.3525 20 18.5596V1.44238C20 0.645508 19.3359 0.000976562 18.5195 0.000976562ZM5.93359 17.0439H2.96484V7.49707H5.93359V17.0439ZM4.44922 6.19629C3.49609 6.19629 2.72656 5.42676 2.72656 4.47754C2.72656 3.52832 3.49609 2.75879 4.44922 2.75879C5.39844 2.75879 6.16797 3.52832 6.16797 4.47754C6.16797 5.42285 5.39844 6.19629 4.44922 6.19629ZM17.043 17.0439H14.0781V12.4033C14.0781 11.2979 14.0586 9.87207 12.5352 9.87207C10.9922 9.87207 10.7578 11.0791 10.7578 12.3252V17.0439H7.79688V7.49707H10.6406V8.80176H10.6797C11.0742 8.05176 12.043 7.25879 13.4844 7.25879C16.4883 7.25879 17.043 9.23535 17.043 11.8057V17.0439V17.0439Z" fill="#FAFAFA"/>
</g>
<defs>
<clipPath id="clip0_1321_2811">
<rect width="20" height="20" fill="white"/>
</clipPath>
</defs>
</svg>
