<svg width="32" height="32" viewBox="0 0 32 32" fill="none" xmlns="http://www.w3.org/2000/svg">
<path fillRule="evenodd" clipRule="evenodd" d="M10.0785 3.49686C10.521 3.50043 10.8897 3.81143 10.8897 4.26633C10.8897 4.56358 10.8733 4.86106 10.857 5.1586V5.15871C10.8431 5.41238 10.8291 5.66608 10.8253 5.91971C10.8239 6.01576 10.8223 6.11172 10.8207 6.20763V6.20816C10.8139 6.61373 10.8072 7.01827 10.8126 7.42435C10.8143 7.55012 10.8191 7.67603 10.824 7.80196C10.8314 7.99172 10.8387 8.18148 10.8352 8.3707C10.8326 8.50736 10.8411 8.64317 10.8495 8.77908C10.8549 8.86625 10.8603 8.95346 10.8629 9.04096C10.8666 9.1736 10.8595 9.30575 10.8525 9.43798C10.8453 9.57177 10.8382 9.70568 10.8422 9.84017C10.8502 10.1055 10.8474 10.37 10.8447 10.6344C10.8413 10.9489 10.838 11.2634 10.8528 11.579C10.8727 12.0026 10.8695 12.4279 10.8663 12.8526C10.8652 13.0096 10.864 13.1666 10.864 13.3233C10.864 13.3868 10.8658 13.4512 10.8677 13.5161C10.8752 13.7851 10.883 14.0616 10.7626 14.3048C10.5675 14.6989 10.1954 14.668 9.8292 14.6375C9.74841 14.6309 9.66792 14.6242 9.58968 14.6221C9.47519 14.6191 9.36053 14.6323 9.24675 14.6454C8.99688 14.6743 8.75121 14.7027 8.52073 14.5571C8.17324 14.3375 8.20269 13.8803 8.22749 13.4954C8.23221 13.4222 8.23676 13.3514 8.23851 13.2856C8.24111 13.1872 8.24413 13.0885 8.24715 12.9897V12.9896C8.26504 12.4052 8.28312 11.8142 8.21564 11.2377C8.18165 10.9475 8.19565 10.6528 8.20965 10.3579C8.22361 10.064 8.23757 9.76997 8.20409 9.48003C8.15884 9.08894 8.01546 9.27715 7.87121 9.4946C7.84159 9.53925 7.81313 9.58419 7.78478 9.62895C7.70343 9.75741 7.62294 9.88451 7.51876 9.99941C7.23786 10.3092 6.98851 10.6635 6.77275 11.0214C6.56175 11.3714 6.09974 11.5799 5.72535 11.3253C5.56721 11.2178 5.45766 11.0384 5.34923 10.8608C5.27283 10.7357 5.19698 10.6115 5.10511 10.514C4.97626 10.3774 4.87001 10.2302 4.76268 10.0815C4.71421 10.0144 4.66549 9.94687 4.61442 9.87996C4.6121 9.87691 4.60865 9.8722 4.60429 9.86622C4.56596 9.81369 4.45631 9.66344 4.40656 9.68703C4.37017 9.70422 4.36382 9.83395 4.36119 9.88772L4.36119 9.88784L4.36094 9.89278L4.3606 9.89953C4.34993 10.0961 4.35958 10.292 4.36923 10.488C4.37818 10.6698 4.38714 10.8516 4.37987 11.0339C4.35845 11.5704 4.369 12.1135 4.37953 12.6553C4.38508 12.9406 4.39062 13.2257 4.39148 13.5093C4.39211 13.7247 4.39861 13.9399 4.40511 14.1551C4.40942 14.2979 4.41374 14.4407 4.41634 14.5836C4.42341 14.9717 4.42629 15.6255 3.94638 15.7467C3.82649 15.777 3.69017 15.7658 3.55694 15.7549H3.55683C3.48188 15.7487 3.4079 15.7427 3.33838 15.7441C3.25007 15.7459 3.16129 15.7494 3.07237 15.753H3.07227H3.07216H3.07205H3.07195H3.07184H3.07174H3.07164C2.89549 15.76 2.71876 15.7669 2.54382 15.761C2.13198 15.7474 1.74892 15.5332 1.70538 15.0939C1.67015 14.7374 1.69665 14.3794 1.72307 14.0227C1.7314 13.9101 1.73973 13.7977 1.7461 13.6854C1.75954 13.4489 1.75123 13.2113 1.74294 12.9743C1.7409 12.916 1.73886 12.8578 1.73715 12.7996C1.72928 12.5327 1.72323 12.2653 1.71719 11.9979C1.70627 11.5148 1.69534 11.0315 1.67361 10.5498C1.65892 10.2234 1.67519 9.89884 1.69146 9.57416C1.70352 9.33343 1.71559 9.09264 1.71505 8.85094C1.71417 8.40506 1.71516 7.96253 1.72793 7.51675C1.73439 7.28995 1.72293 7.06502 1.71148 6.84035C1.69954 6.60606 1.68761 6.37205 1.69605 6.13649C1.70663 5.84011 1.70054 5.54318 1.69445 5.24639C1.69167 5.11104 1.6889 4.97573 1.6877 4.8405C1.68703 4.76338 1.68215 4.68448 1.67724 4.60514C1.65874 4.30611 1.63985 4.00062 1.84428 3.75888C2.08325 3.47617 2.44227 3.49684 2.7783 3.51619C2.80813 3.5179 2.83778 3.51961 2.86715 3.5211C2.99014 3.5273 3.11449 3.5181 3.23746 3.509C3.57457 3.48407 3.9014 3.45989 4.16174 3.75575C4.27613 3.8857 4.36802 4.07726 4.44974 4.24766C4.46899 4.28779 4.48768 4.32675 4.50596 4.36345C4.55973 4.47135 4.60486 4.58317 4.65 4.695C4.69074 4.79596 4.73149 4.89694 4.77862 4.99506C4.81983 5.08091 4.86326 5.1654 4.90668 5.24986C4.96231 5.35804 5.01792 5.46622 5.0688 5.57716C5.12688 5.70364 5.20133 5.81984 5.27589 5.93618C5.33624 6.03037 5.39666 6.12464 5.44849 6.22455C5.52493 6.37194 5.6134 6.51033 5.7022 6.64926C5.74549 6.71699 5.78889 6.78488 5.831 6.85397C5.86587 6.91116 5.89818 6.97321 5.93088 7.03601C5.99699 7.16296 6.06471 7.293 6.15841 7.39225C6.31707 7.25353 6.44065 7.05665 6.55905 6.86802L6.55911 6.86791C6.60371 6.79688 6.64759 6.72695 6.69231 6.6618C6.89209 6.37076 7.08796 6.07993 7.27416 5.78015C7.36853 5.62814 7.45739 5.47334 7.54623 5.3186C7.65824 5.12348 7.77022 4.92843 7.89313 4.73915C7.992 4.58675 8.08243 4.43088 8.17317 4.27449C8.21929 4.195 8.26551 4.11533 8.31294 4.03596C8.44449 3.81577 8.5835 3.58546 8.84268 3.50598C9.01683 3.45255 9.19816 3.46775 9.37835 3.48285C9.45526 3.4893 9.53196 3.49573 9.60781 3.4968C9.69394 3.49801 9.78006 3.49754 9.8662 3.49708C9.93698 3.49669 10.0078 3.49631 10.0785 3.49686ZM30.0337 8.57504C30.0334 8.66536 30.0329 8.75578 30.0329 8.84639C30.0329 9.06504 30.0457 9.28319 30.0585 9.50134V9.50144V9.50162C30.0693 9.68691 30.0801 9.8722 30.0831 10.0578C30.0861 10.2396 30.0794 10.421 30.0726 10.6024C30.0656 10.79 30.0586 10.9776 30.0624 11.1656C30.0678 11.4309 30.056 11.6983 30.0442 11.965C30.0382 12.101 30.0322 12.2369 30.0285 12.3722C30.0171 12.7877 30.0058 13.2033 29.9978 13.6188C29.9935 13.8438 30.008 14.0666 30.0226 14.2896C30.0384 14.5317 30.0542 14.7739 30.0459 15.019C30.0257 15.6143 29.5119 15.7786 28.9959 15.7656C28.9158 15.7635 28.8354 15.7603 28.755 15.757C28.5464 15.7486 28.3373 15.7402 28.1297 15.7533C27.855 15.7707 27.6261 15.7502 27.4717 15.4897C27.3346 15.2584 27.3301 14.8996 27.334 14.6368C27.3355 14.5284 27.3417 14.42 27.3478 14.3117V14.3116V14.3114C27.3535 14.2096 27.3592 14.1078 27.3612 14.0059C27.3681 13.6521 27.3661 13.2979 27.3641 12.9439V12.9436V12.9434C27.3635 12.849 27.363 12.7545 27.3627 12.6601C27.3621 12.5038 27.3614 12.3475 27.3606 12.1912L27.3602 12.1017L27.3596 11.9588C27.359 11.8427 27.3648 11.7266 27.3706 11.6105V11.6104C27.3792 11.4374 27.3878 11.2644 27.3755 11.092C27.365 10.9442 27.3743 10.8011 27.3836 10.6576C27.3907 10.5501 27.3977 10.4423 27.3964 10.3322C27.3964 10.3258 27.3967 10.3089 27.3972 10.2843V10.2842C27.4003 10.1293 27.4093 9.67348 27.3592 9.66265C27.1947 9.75914 27.0844 9.92857 26.9764 10.0945C26.9209 10.1799 26.866 10.2643 26.8046 10.3374C26.6144 10.5639 26.4437 10.7733 26.2767 11.0181C26.1459 11.2099 26.0419 11.3577 25.8031 11.4133C25.2992 11.5308 25.044 11.1273 24.808 10.7542C24.7506 10.6635 24.6944 10.5746 24.6361 10.4954C24.495 10.3042 24.3426 10.1229 24.1878 9.94359C24.1089 9.85233 24.0469 9.75171 23.9844 9.65035C23.9638 9.61688 23.9431 9.58333 23.9217 9.55001C23.9079 9.52847 23.8935 9.50294 23.8781 9.47593C23.8324 9.3951 23.779 9.30091 23.7129 9.25977C23.5393 9.15184 23.5414 9.49819 23.5424 9.65634C23.5425 9.67098 23.5426 9.68401 23.5425 9.69491C23.5417 9.81528 23.542 9.93568 23.5422 10.0561V10.057C23.5424 10.1173 23.5425 10.1777 23.5425 10.2381C23.5425 10.2798 23.5423 10.3216 23.5421 10.3634C23.5417 10.4556 23.5412 10.5478 23.543 10.64C23.544 10.6907 23.5461 10.7413 23.5481 10.7918V10.7919V10.792V10.7922C23.5532 10.915 23.5583 11.0376 23.5476 11.1609C23.5419 11.2275 23.5319 11.2936 23.522 11.3597V11.3598C23.5068 11.4598 23.4918 11.5597 23.4912 11.6612C23.4897 11.9302 23.497 12.1994 23.5043 12.4686C23.5124 12.7627 23.5204 13.0569 23.5168 13.3512C23.516 13.423 23.5205 13.4976 23.525 13.573V13.5731C23.534 13.726 23.5433 13.8818 23.5089 14.0226C23.4434 14.2912 23.2207 14.4699 22.9531 14.5193C22.842 14.5398 22.7313 14.5243 22.6202 14.5088C22.5722 14.502 22.5241 14.4953 22.4759 14.4915C22.3246 14.4794 22.172 14.4926 22.0197 14.5056C21.8317 14.5217 21.6442 14.5378 21.4602 14.5065C20.9726 14.4238 20.8921 13.9464 20.8939 13.5364C20.8949 13.3032 20.8946 13.0698 20.8943 12.8365C20.8941 12.7198 20.8939 12.6031 20.8939 12.4865C20.8939 12.0792 20.8998 11.675 20.9219 11.2679C20.9483 10.7796 20.941 10.2873 20.9337 9.79639V9.7963C20.9303 9.56925 20.927 9.34243 20.9269 9.11647C20.9269 8.86602 20.9315 8.61544 20.9361 8.36484V8.36472V8.36459V8.36442C20.9406 8.11377 20.9452 7.8631 20.9452 7.61254C20.9452 7.01643 20.9439 6.42285 20.9303 5.82658C20.9224 5.47529 20.9081 5.124 20.8906 4.77303C20.8879 4.71719 20.8828 4.65869 20.8776 4.59876C20.8563 4.35221 20.8329 4.08154 20.959 3.87259C21.1941 3.48327 21.5898 3.48356 21.9878 3.48385C22.0021 3.48386 22.0164 3.48388 22.0308 3.48387C22.1181 3.48383 22.2047 3.47991 22.2899 3.47606C22.6887 3.45803 23.057 3.44139 23.3216 3.83009C23.49 4.07727 23.6396 4.33938 23.7891 4.60122C23.8844 4.76819 23.9796 4.93506 24.0797 5.09785C24.1609 5.23007 24.24 5.3639 24.3193 5.49796L24.3194 5.4981C24.435 5.69355 24.5509 5.88949 24.6739 6.08164C24.7956 6.27173 24.9246 6.45703 25.0537 6.64227C25.0848 6.6869 25.1158 6.73154 25.1468 6.77624C25.1858 6.83242 25.2233 6.89201 25.2614 6.95227C25.3596 7.10785 25.4606 7.26799 25.5944 7.38539C25.6961 7.27738 25.7702 7.13531 25.8426 6.99638C25.8814 6.92181 25.9198 6.84815 25.9618 6.78114C26.0901 6.57634 26.2144 6.37661 26.3297 6.16471C26.3781 6.07596 26.4316 5.99133 26.485 5.90686C26.5607 5.7872 26.6362 5.66785 26.6964 5.5375C26.7437 5.4354 26.7944 5.33499 26.8453 5.2346L26.8456 5.23383C26.8603 5.20477 26.875 5.17572 26.8897 5.14662C26.9686 4.9895 27.0409 4.83014 27.1132 4.6709C27.2035 4.47183 27.2937 4.27293 27.3968 4.07871C27.4055 4.06225 27.414 4.04597 27.4225 4.02986L27.4229 4.02909C27.5149 3.8535 27.5954 3.69999 27.7759 3.58814C27.9634 3.47209 28.1399 3.46443 28.3529 3.4837C28.5392 3.50058 28.7241 3.49911 28.9087 3.49764C29.0885 3.49621 29.2681 3.49479 29.4485 3.51029C29.8862 3.54789 30.1087 3.95589 30.0779 4.36289C30.0484 4.75085 30.0546 5.14055 30.0606 5.53012V5.53022V5.53036V5.5305V5.53065C30.0655 5.84177 30.0703 6.1528 30.0571 6.46277C30.0528 6.56406 30.0474 6.66411 30.042 6.76358V6.76415C30.0261 7.05829 30.0106 7.34745 30.0231 7.64899C30.0361 7.95861 30.0349 8.26625 30.0337 8.57504ZM15.4095 10.1152C14.8252 10.1152 14.7702 10.5815 14.779 11.0577C14.7797 11.0952 14.78 11.1337 14.7801 11.1727C14.7817 11.5165 14.7835 11.903 15.143 12.0637C15.4021 12.1795 15.7216 12.1839 16.0126 12.1879C16.07 12.1887 16.1261 12.1895 16.1806 12.1911C16.5571 12.2022 16.9307 12.1955 17.3073 12.1869C17.438 12.1839 17.5683 12.1869 17.6985 12.19C17.8587 12.1936 18.0187 12.1974 18.1794 12.1899C18.3352 12.1828 18.4908 12.1734 18.6465 12.1642H18.6466C18.794 12.1554 18.9414 12.1467 19.0887 12.1397C19.2826 12.1304 19.5432 12.1686 19.6992 12.2982C19.874 12.4432 19.9298 12.7258 19.9426 12.9414C19.9508 13.0781 19.9668 13.2171 19.983 13.3568C20.0132 13.6179 20.0438 13.8815 20.0229 14.137C19.9832 14.6191 19.5271 14.5884 19.1517 14.5631H19.1516L19.1515 14.563C19.1156 14.5606 19.0805 14.5583 19.0466 14.5564C18.8762 14.5471 18.707 14.5615 18.5376 14.576C18.4365 14.5846 18.3352 14.5933 18.2336 14.5968C18.0696 14.6026 17.9059 14.5928 17.742 14.5829C17.6132 14.5751 17.4844 14.5674 17.3556 14.5673C16.9003 14.5666 16.4446 14.5764 15.9895 14.588C15.5939 14.5982 15.1985 14.5892 14.8031 14.5802H14.8031H14.803C14.3622 14.5702 13.9215 14.5602 13.481 14.5766C13.4272 14.5786 13.3663 14.5826 13.3009 14.5869C12.9811 14.6076 12.5534 14.6354 12.3222 14.4764C12.1608 14.3653 12.0435 14.1184 12.0223 13.9279C12.0152 13.864 12.016 13.6801 12.0169 13.4851C12.0178 13.2764 12.0188 13.0551 12.0101 12.9548C11.9662 12.4472 11.9738 11.9234 11.9813 11.4076V11.4075V11.4073V11.4072V11.4071V11.4069C11.9831 11.2774 11.985 11.1484 11.986 11.0204C11.9867 10.9396 11.9946 10.8596 12.0024 10.7796C12.0097 10.7046 12.0171 10.6297 12.0185 10.5541C12.0208 10.4311 12.0116 10.308 12.0025 10.1849C11.9943 10.0761 11.9862 9.96713 11.986 9.85804C11.9857 9.66238 11.9818 9.46676 11.9779 9.27114C11.974 9.06681 11.9699 8.86241 11.9699 8.65798C11.9699 8.46844 11.983 8.27849 11.9961 8.08867V8.08858C12.0137 7.83496 12.0311 7.58153 12.0173 7.32956C11.9995 7.00265 12.0057 6.68061 12.012 6.35697V6.35687C12.0152 6.19109 12.0185 6.02488 12.0185 5.8574C12.0185 5.77104 12.0225 5.68502 12.0265 5.59905C12.0313 5.49651 12.0361 5.39393 12.034 5.29096C12.0316 5.16348 12.0213 5.03699 12.0109 4.91061C11.996 4.7272 11.981 4.54402 11.9902 4.35835C12.0162 3.8316 12.2434 3.48809 12.7956 3.50251C13.0573 3.50932 13.319 3.50296 13.5806 3.49659C13.9173 3.48841 14.2539 3.48022 14.5902 3.50012C14.8932 3.51806 15.1965 3.51162 15.4999 3.50517C15.6071 3.50289 15.7144 3.50061 15.8218 3.4994C15.9727 3.49771 16.1236 3.49096 16.2746 3.48421C16.4405 3.4768 16.6063 3.46939 16.7718 3.46869C17.0244 3.46763 17.2784 3.48034 17.5326 3.49307C17.8753 3.51023 18.2184 3.5274 18.5586 3.51088C18.5881 3.50945 18.6181 3.50782 18.6482 3.50618C19.1072 3.4812 19.6213 3.45322 19.6014 4.06989C19.5994 4.12968 19.5969 4.18845 19.5945 4.24664V4.24675V4.24685V4.24695V4.24705V4.24714C19.5851 4.46815 19.5761 4.68074 19.599 4.90832C19.6271 5.1874 19.6415 5.41016 19.4571 5.63197C19.2191 5.91822 18.7653 5.89148 18.377 5.8686C18.2565 5.8615 18.1423 5.85477 18.0428 5.8579C17.7775 5.86627 17.5187 5.84525 17.26 5.82422C17.0472 5.80693 16.8344 5.78963 16.6178 5.78865C16.5416 5.78831 16.4607 5.78648 16.3769 5.78459C15.9399 5.77471 15.4213 5.76298 15.0596 5.95043C14.9501 6.00725 14.8766 6.1004 14.8404 6.19819C14.7161 6.53316 14.7382 6.84302 14.7929 7.17599C14.859 7.57716 15.1571 7.62656 15.4934 7.64907C15.8568 7.67335 16.221 7.69619 16.5853 7.70119C16.6909 7.70264 16.7963 7.70585 16.9018 7.70905C17.0047 7.71219 17.1076 7.71531 17.2106 7.71682C17.3618 7.71902 17.5125 7.70962 17.6632 7.70022C17.8161 7.69069 17.9691 7.68115 18.1227 7.68372C18.3306 7.68721 18.4652 7.73245 18.5844 7.91713C18.6841 8.0718 18.6716 8.22293 18.6577 8.39187C18.6559 8.41276 18.6542 8.43393 18.6527 8.4554C18.6395 8.6366 18.6333 8.81587 18.6269 8.99549V8.99566V8.99584V8.99602V8.99619V8.99636C18.623 9.10787 18.6191 9.21952 18.6136 9.33185C18.594 9.72637 18.4821 10.0419 18.0596 10.1122C17.6882 10.1741 17.294 10.1573 16.9052 10.1408C16.6971 10.1319 16.4907 10.1231 16.29 10.1265C16.2518 10.1271 16.2136 10.1279 16.1754 10.1286C15.92 10.1335 15.6637 10.1385 15.4095 10.1152ZM10.2999 20.6296C10.2957 20.5149 10.2915 20.3992 10.2915 20.2808C10.2915 20.2659 10.2915 20.2509 10.2915 20.236C10.2918 20.0224 10.2919 19.8173 10.245 19.6058C10.1107 19.001 9.83765 18.53 9.47634 18.0374C9.12005 17.5517 8.55407 17.2912 8.02024 17.0455C7.99181 17.0324 7.96345 17.0194 7.93525 17.0063C7.28788 16.7072 6.45492 16.6657 5.75726 16.6839C5.59858 16.6881 5.43966 16.6965 5.28066 16.705H5.28057H5.28047H5.28037H5.28027C4.97802 16.721 4.67548 16.737 4.37398 16.7237C3.91558 16.7035 3.45784 16.6986 2.99949 16.7131C2.913 16.7158 2.82374 16.7113 2.73428 16.7067C2.43102 16.6913 2.12556 16.6758 1.91872 16.9434C1.71986 17.2009 1.74775 17.594 1.77036 17.9129C1.77249 17.9428 1.77457 17.9721 1.77641 18.0006C1.82333 18.7261 1.84403 19.4705 1.80197 20.196C1.7943 20.3284 1.78594 20.4607 1.77759 20.593C1.75612 20.9329 1.73467 21.2725 1.72502 21.6137C1.7182 21.8554 1.72743 22.0966 1.73665 22.3375C1.74597 22.5809 1.75528 22.8241 1.74803 23.0675C1.73809 23.4031 1.74237 23.7368 1.74667 24.0714C1.74814 24.1862 1.74962 24.301 1.75052 24.4161C1.75171 24.5655 1.75835 24.7144 1.76498 24.8631C1.77765 25.1475 1.7903 25.4314 1.76482 25.717C1.72386 26.176 1.71497 26.6297 1.72927 27.0902C1.73517 27.2799 1.73666 27.4674 1.71226 27.656C1.70754 27.6925 1.70203 27.7291 1.6965 27.7659C1.67018 27.9409 1.64348 28.1184 1.69946 28.2904C1.8251 28.6764 2.10111 28.671 2.44403 28.6516C2.56571 28.6446 2.68726 28.644 2.80888 28.6432H2.80897C2.94657 28.6424 3.08423 28.6416 3.22223 28.6318C3.4288 28.6171 3.62875 28.6101 3.83338 28.6444C3.87153 28.6508 3.90998 28.659 3.94864 28.6672C4.04796 28.6884 4.14869 28.7099 4.2489 28.7019C4.52872 28.6798 4.69322 28.464 4.68687 28.191C4.68305 28.0267 4.65162 27.8645 4.62007 27.7018C4.58739 27.5333 4.5546 27.3641 4.55229 27.1914C4.54782 26.8592 4.56366 26.5113 4.77023 26.2339C5.19204 25.6673 5.93938 26.238 6.32867 26.5535C6.4792 26.6755 6.97234 27.0946 7.06242 27.192C7.34214 27.4951 7.64068 27.7702 7.95185 28.0403C8.42594 28.4519 9.23488 28.9277 9.86906 28.6415C10.2038 28.4904 10.2485 28.2717 10.2294 27.9197C10.2202 27.7473 10.2353 27.5787 10.2505 27.4092C10.258 27.3239 10.2657 27.2383 10.2702 27.152C10.2764 27.0376 10.2697 26.9236 10.2629 26.8096C10.2567 26.705 10.2505 26.6006 10.2543 26.4959C10.256 26.4455 10.26 26.3954 10.264 26.3461C10.2841 26.094 10.3027 25.8616 10.0151 25.7289C9.94645 25.6972 9.86744 25.6704 9.78757 25.6433C9.69229 25.611 9.59578 25.5781 9.5141 25.5362C9.44216 25.4993 9.37276 25.4574 9.30326 25.4155L9.30313 25.4154C9.24332 25.3794 9.18342 25.3432 9.12177 25.3102C8.90847 25.1958 8.63389 25.035 8.52387 24.8104C8.37349 24.5031 8.60388 24.2577 8.8013 24.0475C8.80846 24.0398 8.81558 24.0323 8.82263 24.0247C8.86029 23.9845 8.89805 23.9445 8.9358 23.9043C9.41541 23.3951 9.89125 22.8898 10.0877 22.1995C10.1544 21.9649 10.2173 21.7296 10.2637 21.4901C10.3206 21.1961 10.3104 20.9164 10.2999 20.6296ZM4.91287 19.4104C5.11801 19.3107 5.26596 19.303 5.48616 19.347C5.57141 19.347 5.65593 19.3531 5.74038 19.3593C5.81424 19.3648 5.88806 19.3702 5.96223 19.3715C6.18675 19.3754 6.36631 19.4185 6.58051 19.4796C7.06795 19.6185 7.40386 20.0194 7.51835 20.5051C7.60452 20.8708 7.55638 21.2897 7.42517 21.6391C7.36152 21.8085 7.27017 21.9664 7.17948 22.1232C7.15822 22.16 7.13701 22.1967 7.11619 22.2334C7.10158 22.2593 7.0872 22.2856 7.07275 22.3121C7.01431 22.4192 6.95455 22.5288 6.87214 22.6176C6.46982 23.0515 5.87804 23.4093 5.26629 23.3629C4.87655 23.3333 4.5927 23.2461 4.57145 22.7937C4.54688 22.2709 4.52844 21.7669 4.54876 21.2434C4.55491 21.0843 4.54521 20.9242 4.53552 20.7645C4.51516 20.4288 4.49491 20.0949 4.6224 19.7756C4.69123 19.6031 4.74197 19.4937 4.91287 19.4104ZM14.2552 21.4273C14.2552 21.6435 14.2371 21.8583 14.2192 22.0731C14.2007 22.2924 14.1824 22.5116 14.1831 22.7324C14.1838 22.9218 14.177 23.112 14.1703 23.302V23.3021C14.1617 23.5454 14.153 23.7884 14.1599 24.03C14.1654 24.2225 14.1775 24.4145 14.1896 24.6065C14.2041 24.8364 14.2186 25.0664 14.2217 25.2969C14.2237 25.4405 14.2217 25.5831 14.2198 25.7253V25.7255V25.7255V25.7256C14.2158 26.0141 14.2118 26.301 14.2408 26.5918L14.2449 26.6332C14.2938 27.1229 14.3621 27.8063 14.1579 28.2538C14.0153 28.5668 13.8158 28.7277 13.4723 28.7069C13.2143 28.6913 12.9633 28.7024 12.7105 28.7135C12.5705 28.7198 12.4299 28.726 12.2873 28.7277L12.2673 28.7279C12.0153 28.7312 11.7029 28.7352 11.5902 28.4466C11.5361 28.3077 11.5549 28.1345 11.572 27.978V27.9779C11.576 27.9403 11.58 27.9035 11.5828 27.8686C11.5883 27.8014 11.5943 27.7344 11.6003 27.6673C11.6147 27.5064 11.6291 27.3456 11.6356 27.184C11.6571 26.6435 11.6418 26.1008 11.6266 25.5589C11.6185 25.2699 11.6103 24.9812 11.6079 24.6931C11.6052 24.3925 11.5986 24.0919 11.5921 23.7914C11.5848 23.4601 11.5776 23.1287 11.5757 22.7973C11.5744 22.5744 11.5871 22.3523 11.5998 22.1301C11.6117 21.9241 11.6235 21.7181 11.6241 21.5115C11.6243 21.4093 11.6123 21.3004 11.6002 21.1898C11.5665 20.8831 11.5313 20.5638 11.7528 20.3403C11.9813 20.1096 12.3465 20.165 12.6572 20.2122C12.7236 20.2223 12.7875 20.2321 12.847 20.2385C13.0339 20.2587 13.2256 20.2495 13.4167 20.2404C13.5292 20.235 13.6414 20.2296 13.7523 20.2301C14.0131 20.2316 14.2646 20.5099 14.2715 20.7865C14.2743 20.9028 14.269 21.0215 14.2637 21.1403V21.1404C14.2595 21.2363 14.2552 21.3324 14.2552 21.4273ZM15.8543 28.599C15.5863 28.5525 15.1137 28.3891 15.1137 28.0665C15.1137 27.9537 15.1123 27.8396 15.1109 27.7252V27.7249C15.1078 27.4731 15.1048 27.2194 15.1163 26.9717C15.1209 26.8746 15.1302 26.7783 15.1394 26.6822C15.1585 26.4836 15.1775 26.286 15.1548 26.0842C15.1328 25.8893 15.1147 25.7131 15.3249 25.6199C15.4978 25.5434 15.7394 25.5577 15.9333 25.5691C15.9475 25.5699 15.9614 25.5707 15.9752 25.5716C16.1731 25.5826 16.4078 25.6497 16.5945 25.7161C16.7395 25.7678 16.9379 25.7952 17.0941 25.8079C17.4442 25.836 17.7941 25.8551 18.1289 25.7506C18.7623 25.553 18.9472 24.8308 18.737 24.256C18.6329 23.9711 18.476 23.7713 18.2527 23.571C18.2077 23.5305 18.1671 23.4932 18.1286 23.4577L18.1285 23.4576C17.9989 23.3385 17.8934 23.2414 17.7268 23.1255C17.7037 23.1095 17.6794 23.0927 17.6542 23.0753C17.5212 22.9838 17.3649 22.8764 17.2546 22.7754C17.2007 22.7262 17.1423 22.669 17.0829 22.6112L17.0828 22.6109C17.0054 22.5355 16.9267 22.4585 16.8548 22.3958C16.6756 22.2392 16.5069 22.0711 16.3383 21.903C16.2666 21.8315 16.1948 21.76 16.1224 21.6895C15.2812 20.8703 15.0121 19.655 15.0473 18.5192C15.0631 18.0061 15.2045 17.5097 15.4537 17.0587C15.7816 16.4654 16.2796 16.146 16.8898 15.8893C17.7641 15.5215 18.8171 15.4483 19.7555 15.5736L19.7847 15.5775C20.0909 15.6183 20.399 15.6593 20.6973 15.7417C20.7052 15.7438 20.7132 15.746 20.7214 15.7482L20.7337 15.7516L20.7342 15.7516C20.8428 15.7809 20.9732 15.816 21.0556 15.889C21.1807 15.9997 21.1609 16.1698 21.1434 16.3178C21.1246 16.476 21.1297 16.6218 21.1376 16.7807C21.1431 16.8919 21.1427 17.0034 21.1423 17.1149C21.142 17.1979 21.1417 17.2811 21.1439 17.3642C21.1452 17.4158 21.1496 17.4712 21.1542 17.5286C21.1736 17.7724 21.1958 18.0501 20.9944 18.2048C20.7697 18.3773 20.5432 18.3297 20.304 18.2793C20.25 18.2679 20.1953 18.2565 20.1399 18.2473C19.7723 18.1867 19.3898 18.1536 19.0179 18.1343C18.5273 18.1091 18.0193 18.4796 17.9595 18.9695C17.8806 19.6158 18.3517 20.056 18.8205 20.4071C19.0362 20.5684 19.2375 20.7402 19.4387 20.9187C19.4925 20.9663 19.5492 21.0114 19.6058 21.0565C19.7143 21.1428 19.8229 21.2292 19.9116 21.334C20.0102 21.4505 20.1226 21.5511 20.2353 21.6519C20.3105 21.7191 20.3857 21.7865 20.457 21.8587C20.4825 21.8846 20.5167 21.9153 20.5562 21.9511H20.5563C20.6826 22.065 20.8649 22.2293 21.0029 22.4465C21.4883 23.2109 21.6926 23.9703 21.6916 24.8747C21.6912 25.3055 21.6761 25.7544 21.4854 26.1485C21.4406 26.241 21.403 26.3305 21.3663 26.4182C21.2887 26.6035 21.2146 26.7801 21.0834 26.9575C20.8468 27.2769 20.6202 27.5535 20.3258 27.8227C20.0958 28.0329 19.8912 28.1567 19.6112 28.2924C19.2839 28.451 18.9452 28.6121 18.583 28.6702C18.4023 28.6992 18.2201 28.7004 18.0378 28.7016C17.9577 28.7021 17.8776 28.7027 17.7975 28.7056C17.729 28.708 17.661 28.712 17.5932 28.716H17.5929H17.5929C17.4389 28.7251 17.2861 28.7341 17.1303 28.7247C16.7113 28.6997 16.2681 28.6709 15.8543 28.599ZM22.6283 28.1376C22.8247 28.4769 23.145 28.4723 23.5048 28.4672L23.5333 28.4668C23.9412 28.4613 24.3489 28.46 24.7576 28.4668C25.4705 28.4786 26.1763 28.4882 26.8895 28.4624C27.1619 28.4525 27.4339 28.4606 27.7057 28.4687H27.7058H27.7059C28.0049 28.4775 28.3037 28.4863 28.6025 28.4713C28.6779 28.4675 28.7528 28.4618 28.8275 28.4561C29.0008 28.4428 29.1733 28.4296 29.3487 28.441C29.396 28.4441 29.4457 28.4491 29.4968 28.4543C29.7091 28.4759 29.9447 28.4998 30.1243 28.392C30.4207 28.214 30.3315 27.7047 30.276 27.3876C30.2693 27.3494 30.2631 27.314 30.2581 27.2823C30.2433 27.1876 30.2398 27.0769 30.2361 26.9609C30.2257 26.6306 30.2139 26.2563 29.9347 26.0807C29.7525 25.9662 29.4952 25.9456 29.2868 25.9634C29.066 25.9823 28.8466 25.9913 28.6262 26.0002H28.626C28.5519 26.0032 28.4778 26.0062 28.4034 26.0096C27.8163 26.0365 27.2009 26.0458 26.6133 26.0154L26.6035 26.0149C26.2367 25.996 25.7343 25.9701 25.5115 25.6363C25.3166 25.3443 25.3452 24.8728 25.3669 24.5163C25.3691 24.4807 25.3712 24.4462 25.373 24.4133C25.4001 23.9163 25.6913 23.6902 26.1902 23.6865C26.2866 23.6857 26.3826 23.6776 26.4786 23.6694C26.5944 23.6595 26.71 23.6497 26.8261 23.6529C26.9081 23.6551 26.9888 23.6667 27.0695 23.6782C27.1458 23.6892 27.2221 23.7001 27.2995 23.7032C27.3871 23.7066 27.474 23.7022 27.561 23.6978C27.6515 23.6933 27.7419 23.6886 27.833 23.693C28.0785 23.7046 28.3241 23.704 28.5699 23.7034C28.6227 23.7033 28.6756 23.7032 28.7286 23.7032C28.7633 23.7032 28.7991 23.7037 28.8358 23.7042C29.1232 23.7081 29.4566 23.7127 29.6483 23.4845C29.8086 23.2935 29.7989 22.9689 29.7909 22.7026V22.7025C29.7891 22.6416 29.7873 22.5837 29.7877 22.5312C29.7886 22.422 29.8074 22.3027 29.8267 22.1807V22.1807C29.8691 21.9121 29.9136 21.6303 29.773 21.415C29.6499 21.2267 29.515 21.1902 29.2978 21.1896C29.15 21.1892 29.0027 21.1985 28.8554 21.2079C28.6804 21.2189 28.5055 21.2301 28.3301 21.2248C28.2098 21.2212 28.0908 21.2064 27.9719 21.1916C27.8417 21.1755 27.7115 21.1594 27.5799 21.1578C27.4205 21.156 27.2619 21.1694 27.1033 21.1829C26.9527 21.1957 26.8022 21.2085 26.6509 21.2082H26.6299C26.2244 21.2075 25.599 21.2065 25.4303 20.7663C25.3575 20.5765 25.3627 20.3594 25.3676 20.1541C25.3686 20.1112 25.3696 20.0689 25.3698 20.0273L25.37 20.0071C25.3711 19.8247 25.3722 19.6335 25.4499 19.464C25.5894 19.1603 25.9343 19.096 26.242 19.0711C26.562 19.0452 26.8702 19.0742 27.1817 19.1034C27.3159 19.116 27.4507 19.1287 27.5873 19.137C27.7771 19.1485 27.968 19.1412 28.1584 19.1338H28.1586C28.2424 19.1306 28.3262 19.1274 28.4097 19.1258C28.5153 19.1238 28.6221 19.1294 28.7291 19.1351C28.874 19.1427 29.0191 19.1504 29.1616 19.139C29.3563 19.1234 29.5817 19.0611 29.7095 18.9122C29.8957 18.6949 29.8838 18.4722 29.857 18.2029C29.8299 17.9317 29.8243 17.6753 29.8465 17.404C29.8649 17.179 29.881 16.9193 29.6626 16.7803C29.51 16.6832 29.3168 16.6925 29.1428 16.701L29.1312 16.7015C29.0985 16.7031 29.0659 16.7047 29.0334 16.7063L29.0327 16.7064C28.7599 16.72 28.4918 16.7334 28.217 16.7172C27.6905 16.6863 27.1583 16.6584 26.6342 16.7052C26.1944 16.7444 25.7259 16.7421 25.2863 16.7169C24.9659 16.6986 24.6468 16.7079 24.3276 16.7172C24.0531 16.7252 23.7786 16.7331 23.5032 16.7236C23.4633 16.7222 23.4223 16.7196 23.3808 16.717C23.1701 16.704 22.9446 16.69 22.773 16.821C22.6297 16.9303 22.5448 17.0917 22.5047 17.2613C22.431 17.5728 22.4581 17.8904 22.4852 18.208C22.5043 18.4312 22.5234 18.6543 22.5075 18.8753C22.493 19.0758 22.4892 19.2776 22.4854 19.4793V19.4795C22.4824 19.6398 22.4793 19.8 22.471 19.9597C22.4596 20.1792 22.473 20.3926 22.4867 20.6092C22.4899 20.6586 22.493 20.7082 22.4959 20.758C22.5072 20.9557 22.4889 21.1489 22.4704 21.3436C22.4645 21.4063 22.4586 21.4692 22.4536 21.5325C22.4354 21.763 22.4388 21.9975 22.4421 22.2305C22.4433 22.3183 22.4447 22.4058 22.4448 22.4928C22.4453 22.8826 22.45 23.2748 22.4636 23.6643C22.4663 23.7401 22.4712 23.8147 22.4761 23.8889C22.4877 24.0669 22.4993 24.2425 22.4793 24.4247C22.4665 24.5414 22.4622 24.6531 22.4622 24.7697C22.4622 24.8742 22.462 24.9787 22.4619 25.0833V25.0834C22.461 25.612 22.4602 26.1413 22.4807 26.6687C22.4832 26.734 22.4866 26.7988 22.4898 26.8632C22.4989 27.0426 22.5078 27.2203 22.5007 27.4027C22.5003 27.4141 22.4998 27.4255 22.4993 27.4369C22.4894 27.6845 22.4797 27.9244 22.6283 28.1376ZM13.2494 19.1695C13.7962 18.8832 14.2718 18.3147 14.2964 17.6753C14.2581 17.2544 14.0866 16.9547 13.7593 16.6873C13.5122 16.4854 13.1879 16.3443 12.8757 16.2863C12.3431 16.1871 11.7418 16.4381 11.4513 16.9073C11.2697 17.2009 11.1838 17.5369 11.2382 17.8805C11.2948 18.2383 11.4333 18.4895 11.6165 18.7927C11.7625 19.0341 12.0674 19.2228 12.3308 19.2983C12.6502 19.3898 12.9624 19.3196 13.2494 19.1695Z" fill="#F2C94C"/>
</svg>
